<?xml version="1.0" encoding="utf-8"?>
<svg viewBox="0 0 500 500" xmlns="http://www.w3.org/2000/svg">
  <path style="fill: rgb(216, 216, 216);" d="M 262.315 265.63 C 250.166 265.63 238.885 263.981 228.471 261.509 L 244.959 479.919 C 245.827 488.985 252.769 496.403 262.315 496.403 C 271.861 496.403 278.803 488.985 279.671 479.919 L 296.159 261.509 C 285.746 264.806 274.464 265.63 262.315 265.63"/>
  <path style="fill: rgb(34, 191, 178);" d="M 392.485 135.678 C 392.485 63.651 334.342 5.509 262.315 5.509 C 190.288 5.509 132.146 63.651 132.146 135.678 C 132.146 207.705 190.288 265.847 262.315 265.847 C 334.342 265.847 392.485 207.706 392.485 135.678"/>
  <g transform="matrix(1, 0, 0, 1, 10.65381145477295, 5.509176254272461)"/>
  <g transform="matrix(1, 0, 0, 1, 10.65381145477295, 5.509176254272461)"/>
  <g transform="matrix(1, 0, 0, 1, 10.65381145477295, 5.509176254272461)"/>
  <g transform="matrix(1, 0, 0, 1, 10.65381145477295, 5.509176254272461)"/>
  <g transform="matrix(1, 0, 0, 1, 10.65381145477295, 5.509176254272461)"/>
  <g transform="matrix(1, 0, 0, 1, 10.65381145477295, 5.509176254272461)"/>
  <g transform="matrix(1, 0, 0, 1, 10.65381145477295, 5.509176254272461)"/>
  <g transform="matrix(1, 0, 0, 1, 10.65381145477295, 5.509176254272461)"/>
  <g transform="matrix(1, 0, 0, 1, 10.65381145477295, 5.509176254272461)"/>
  <g transform="matrix(1, 0, 0, 1, 10.65381145477295, 5.509176254272461)"/>
  <g transform="matrix(1, 0, 0, 1, 10.65381145477295, 5.509176254272461)"/>
  <g transform="matrix(1, 0, 0, 1, 10.65381145477295, 5.509176254272461)"/>
  <g transform="matrix(1, 0, 0, 1, 10.65381145477295, 5.509176254272461)"/>
  <g transform="matrix(1, 0, 0, 1, 10.65381145477295, 5.509176254272461)"/>
  <g transform="matrix(1, 0, 0, 1, 10.65381145477295, 5.509176254272461)"/>
  <path d="M 198.911 140.333 C 198.911 127.468 191.113 116.532 180.234 112.478 L 180.234 97.013 C 180.234 91.502 180.234 88.746 181.252 86.638 C 182.148 84.789 183.577 83.282 185.333 82.338 C 187.331 81.264 189.945 81.264 195.176 81.264 L 333.387 81.264 C 338.616 81.264 341.232 81.264 343.23 82.338 C 344.987 83.282 346.415 84.789 347.311 86.638 C 348.329 88.746 348.329 91.502 348.329 97.013 L 348.329 112.478 C 337.45 116.532 329.652 127.468 329.652 140.333 C 329.652 153.19 337.45 164.124 348.329 168.181 L 348.329 183.634 C 348.329 189.147 348.329 191.902 347.311 194.009 C 346.415 195.869 344.987 197.365 343.23 198.31 C 341.232 199.383 338.616 199.383 333.387 199.383 L 195.176 199.383 C 189.945 199.383 187.331 199.383 185.333 198.31 C 183.577 197.365 182.148 195.869 181.252 194.009 C 180.234 191.902 180.234 189.147 180.234 183.634 L 180.234 168.181 C 191.113 164.124 198.911 153.19 198.911 140.333 Z" stroke-width="2" stroke-linecap="round" stroke-linejoin="round" style="fill: rgb(255, 255, 255); stroke: rgb(255, 255, 255);"/>
</svg>