<svg xmlns="http://www.w3.org/2000/svg" fill="none" height="22" width="22" style=""><rect id="backgroundrect" width="100%" height="100%" x="0" y="0" fill="none" stroke="none"/><g class="currentLayer" style=""><title>Layer 1</title><path fill="#229b01" stroke-dashoffset="" fill-rule="evenodd" marker-start="" marker-mid="" marker-end="" id="svg_4" d="M18.974567839879143,-5.0486737671702044e-8 C17.303722140081465,-5.0486737671702044e-8 15.949135017937465,1.3545870716573185 15.949135017937465,3.025432771455015 C15.949135017937465,4.696681862295639 18.974567839879143,10.335281860309172 18.974567839879143,10.335281860309172 S22.000000661820877,4.696681862295639 22.000000661820877,3.025432771455015 C22.000000661820877,1.3545870716573185 20.645816930719782,-5.0486737671702044e-8 18.974567839879143,-5.0486737671702044e-8 zM18.974567839879143,4.471186269300231 C18.17625696592944,4.471186269300231 17.528814342033918,3.8241470364476515 17.528814342033918,3.025432771455015 S18.17625696592944,1.5796792736097973 18.974567839879143,1.5796792736097973 S20.420321337724374,2.2271218975053153 20.420321337724374,3.025432771455015 S19.772878713828852,4.471186269300231 18.974567839879143,4.471186269300231 z" style="color: rgb(0, 0, 0);" class="" fill-opacity="1"/><path fill="#434c40" stroke-dashoffset="" fill-rule="evenodd" marker-start="" marker-mid="" marker-end="" d="M3.0254328219416777,11.664717623768635 C1.3545871221439967,11.664717623768635 -2.220446049250313e-16,13.019304745912688 -2.220446049250313e-16,14.690150445710387 C-2.220446049250313e-16,16.361399536551012 3.0254328219416777,21.999999534564544 3.0254328219416777,21.999999534564544 S6.050865643883412,16.361399536551012 6.050865643883412,14.690150445710387 C6.050865643883412,13.019304745912688 4.696681912782317,11.664717623768635 3.0254328219416777,11.664717623768635 zM3.0254328219416777,16.135903943555604 C2.227121947991975,16.135903943555604 1.5796793240964535,15.488864710703023 1.5796793240964535,14.690150445710387 S2.227121947991975,13.244396947865173 3.0254328219416777,13.244396947865173 S4.471186319786909,13.891839571760688 4.471186319786909,14.690150445710387 S3.8237436958913875,16.135903943555604 3.0254328219416777,16.135903943555604 z" style="color: rgb(0, 0, 0);" class="" id="svg_7" fill-opacity="1"/><path fill="#434c40" fill-opacity="1" stroke="#666666" stroke-opacity="1" stroke-width="1" stroke-dasharray="none" stroke-linejoin="miter" stroke-linecap="butt" stroke-dashoffset="" fill-rule="evenodd" opacity="1" marker-start="" marker-mid="" marker-end="" d="M16.29411735398869,7.968325680149122 L6.9728505465579715,14.031673991778813 " id="svg_14" class=""/><path fill="#434c40" fill-opacity="1" stroke="#000000" stroke-opacity="1" stroke-width="1" stroke-dasharray="none" stroke-linejoin="miter" stroke-linecap="butt" stroke-dashoffset="" fill-rule="evenodd" opacity="1" marker-start="" marker-mid="" marker-end="" d="M10.004523609480295,10.864253482313657L10.09502134547477,10.864253482313657" id="svg_16"/></g></svg>