<svg width="34" height="32" xmlns="http://www.w3.org/2000/svg">
 <title>Car-top-view_open-doors v2</title>

 <g>
  <title>Layer 1</title>
  <path class="cls-1" d="m26.39936,6.94209l0,-1.85218a5.0899,5.0899 0 0 0 -5.0887,-5.0899l-8.13449,0a5.0911,5.0911 0 0 0 -5.0911,5.0911l0,1.85098a4.47091,4.47091 0 0 1 -1.43952,3.2881l-6.2919,5.79767a1.10723,1.10723 0 0 0 0.0072,1.62906c0.43186,0.39587 1.11563,0.33949 1.54628,-0.05758l4.82119,-4.43852a0.80853,0.80853 0 0 1 1.35675,0.5998l0,13.59147a5.0911,5.0911 0 0 0 5.0911,5.0911l8.13329,0a5.0899,5.0899 0 0 0 5.0899,-5.0911l0,-13.59987a0.80973,0.80973 0 0 1 1.35795,-0.5998l4.82119,4.44452c0.43186,0.39707 1.11443,0.45345 1.54628,0.05758a1.10723,1.10723 0 0 0 0.0072,-1.63146l-6.2907,-5.79767a4.47211,4.47211 0 0 1 -1.44192,-3.28331l0,0.00001zm-8.83026,0.3143c3.39847,0 5.19187,0.53022 5.97281,0.85531a0.54822,0.54822 0 0 1 0.2927,0.71976l-2.12809,4.95075a0.55062,0.55062 0 0 1 -0.50383,0.33229l-7.91856,0a0.54942,0.54942 0 0 1 -0.50383,-0.33229l-2.1101,-4.90157a0.54702,0.54702 0 0 1 0.31909,-0.73416c0.92489,-0.32629 3.05898,-0.8901 6.57981,-0.8901l0,0.00001zm-6.85452,5.96201l0.99327,2.71709a0.55661,0.55661 0 0 1 0.03359,0.18834l0,6.07478a0.55062,0.55062 0 0 1 -0.10197,0.31789l-0.99447,1.39034a0.54942,0.54942 0 0 1 -0.99567,-0.31789l0,-10.18581a0.54822,0.54822 0 0 1 1.06524,-0.18474l0.00001,0zm0.17994,14.48757l1.5019,-2.73149a0.54822,0.54822 0 0 1 0.47984,-0.28431l8.73069,0a0.54582,0.54582 0 0 1 0.47984,0.28431l1.5031,2.73029a0.54942,0.54942 0 0 1 -0.47984,0.81333l-11.73449,0a0.54942,0.54942 0 0 1 -0.48104,-0.81573l0,0.0036zm12.94609,-3.79913l-0.589,-0.82772a2.72309,2.72309 0 0 1 -0.50743,-1.58347l0,-5.37541a0.55661,0.55661 0 0 1 0.03359,-0.18834l0.99327,-2.7135a0.54822,0.54822 0 0 1 1.06285,0.18834l0,10.18581a0.54822,0.54822 0 0 1 -0.99327,0.3143l-0.00001,-0.00001z" fill="#424949" id="svg_1" stroke="null"/>
 </g>
</svg>