<svg width="50" height="50" xmlns="http://www.w3.org/2000/svg" enable-background="new 0 0 50 50" version="1.1" xml:space="preserve">
 <g>
  <title>Layer 1</title>
  <g id="Layer_1" stroke="null">
   <path d="m13.59173,10.57993l0,-2.00158l16.7315,0l0,2.00778l-4.70961,0l0,1.85906l0.73123,0c1.41288,0 2.82576,0 4.23865,0a3.37109,3.37109 0 0 1 3.55699,3.16039a4.95748,4.95748 0 0 0 0.13013,0.80559a1.46246,1.46246 0 0 0 1.51203,1.15881l3.9412,0a1.31373,1.31373 0 0 1 0.1983,0.10535l0,3.78008l2.05116,0l0,-3.78008a4.70961,4.70961 0 0 1 0.49575,-0.08676c1.68554,0 3.37109,0 5.05663,0a0.61969,0.61969 0 0 1 0.71264,0.55152c0.35942,1.54302 0.787,3.09843 1.14022,4.61046a9.69187,9.69187 0 0 1 0.24168,1.98299c0,2.10693 -0.06817,4.21386 0,6.32079a19.99104,19.99104 0 0 1 -0.89854,6.43233c-0.1921,0.69405 -0.32843,1.40049 -0.53913,2.08214c-0.06817,0.21069 -0.30365,0.52054 -0.46476,0.52054c-1.85906,0.03718 -3.76149,0 -5.72589,0l0,-3.86064l-2.10693,0c0,0.65687 0,1.27035 0,1.85906a3.33391,3.33391 0 0 1 -3.21617,3.33391c-5.92419,0 -11.84838,0 -17.77257,0a3.71811,3.71811 0 0 1 -2.60268,-1.23937c-1.30134,-1.28894 -2.62746,-2.5593 -3.91021,-3.86064a2.05735,2.05735 0 0 0 -1.64836,-0.68165c-0.68785,0 -1.38809,0 -2.08214,0a3.32771,3.32771 0 0 1 -3.25954,-3.40207c0,-2.10693 0,-4.21386 0,-6.37656l-2.68943,0l0,7.76465c-1.34472,-0.18591 -1.5802,-0.44617 -1.5802,-1.64836c0,-2.05735 0,-4.11471 0,-6.19685c0,-0.25407 0,-0.61969 -0.18591,-0.74982c-0.61969,-0.47716 -0.55772,-1.10304 -0.55772,-1.74751c-0.0062,-1.69174 -0.0062,-3.39587 -0.0062,-5.1062a1.85906,1.85906 0 0 1 0.49575,-1.07825c0.49575,-0.56391 1.09065,-1.04727 1.7723,-1.69174l0,8.23561l2.7514,0l0,-2.77619c0,-0.52054 0,-1.04107 0,-1.56161a3.39587,3.39587 0 0 1 3.28433,-3.44545c0.22309,0 0.44617,0 0.66926,0c1.3819,0 1.47485,-0.09295 2.05116,-1.35091a3.30912,3.30912 0 0 1 3.1542,-2.08834c1.23937,0 2.51592,0 3.82965,0l0,-1.85906l-4.79017,0.01859l0,-0.00001zm24.26067,9.0598l-1.72892,0c-2.3672,0 -3.71811,-1.23937 -4.02795,-3.55699c-0.14253,-1.23937 -0.52054,-1.574 -1.78469,-1.574l-15.23806,0c-1.23937,0 -1.45006,0.15492 -1.93961,1.30754a3.27813,3.27813 0 0 1 -2.90013,2.10693c-0.43998,0.03718 -0.89235,0 -1.33852,0a1.35091,1.35091 0 0 0 -1.42528,1.46865q0,6.32079 0,12.63538a1.31993,1.31993 0 0 0 1.40669,1.47485c0.66926,0.03718 1.33852,0 2.00778,0a3.76149,3.76149 0 0 1 2.86294,1.1836c1.31993,1.33232 2.67704,2.63366 4.00317,3.96598a2.17509,2.17509 0 0 0 1.64836,0.68165c5.57717,0 11.15433,0 16.7315,0c1.23937,0 1.71033,-0.47716 1.71653,-1.69174l0,-3.48263l6.23403,0l0,3.87923c0.73743,0 1.40049,0 2.06355,0a0.61969,0.61969 0 0 0 0.43378,-0.37181c0.3904,-1.75371 1.08445,-3.43925 1.02248,-5.29831c-0.07436,-2.07594 -0.09915,-4.16428 0,-6.24023s-0.48955,-4.01556 -0.9915,-5.97376c-0.04957,-0.17971 -0.23548,-0.45237 -0.37181,-0.46476c-0.70024,-0.04338 -1.40669,0 -2.19369,0l0,3.82346l-6.19685,0l0.0062,-3.87303l0,-0.00001z" id="svg_1" stroke="null" fill="#424949" xmlns="http://www.w3.org/2000/svg"/>
  </g>
  <g stroke="null" id="svg_2">
   <g stroke="null" id="svg_3">
    <path stroke="null" fill="#616A6B" d="m29.99193,19.30014c0.42474,0.30363 0.82218,0.63967 1.18893,1.00811c1.70578,1.70578 2.75995,4.06146 2.75995,6.66447s-1.05417,4.95869 -2.75995,6.66447s-4.06146,2.75995 -6.66277,2.75995c-1.19234,0 -2.3318,-0.22175 -3.38256,-0.62431l1.42774,-1.57614c0.62261,0.16887 1.27763,0.25757 1.95482,0.25757c2.0657,0 3.93693,-0.83754 5.28962,-2.19192c1.35439,-1.35439 2.19022,-3.22392 2.19022,-5.28962c0,-2.0657 -0.83754,-3.93693 -2.19022,-5.28962c-0.28316,-0.28316 -0.58849,-0.54244 -0.91259,-0.77783l1.09681,-1.60514l0,0l0,0.00001zm-11.79716,14.66116c-0.11599,-0.10576 -0.23028,-0.21322 -0.34116,-0.3241c-1.70578,-1.70578 -2.75995,-4.06146 -2.75995,-6.66447s1.05417,-4.95869 2.75995,-6.66447c1.34074,-1.34074 3.08234,-2.27892 5.03034,-2.61837l-1.25375,2.37956c-0.90577,0.37868 -1.72113,0.93135 -2.40344,1.61367c-1.35439,1.35439 -2.19192,3.22392 -2.19192,5.28962c0,2.01623 0.7966,3.84482 2.09299,5.19068l-0.93306,1.79789l0,0l0,-0.00001z" class="st1" id="svg_4"/>
    <polygon stroke="null" fill="#F6C32E" clip-rule="evenodd" fill-rule="evenodd" points="30.266559600830078,17.002476140856743 24.780780792236328,17.075827047228813 19.49628448486328,27.10750238597393 23.09547233581543,27.145027562975883 17.471525192260742,37.96307031810284 30.157394409179688,24.09168665111065 25.41874122619629,24.09168665111065 30.266559600830078,17.002476140856743 " class="st0" id="svg_5"/>
   </g>
  </g>
 </g>

</svg>