<svg width="23" height="36" xmlns="http://www.w3.org/2000/svg" xmlns:xlink="http://www.w3.org/1999/xlink">
 <g>
  <title>background</title>
  <rect fill="none" id="canvas_background" height="38" width="25" y="-1" x="-1"/>
 </g>
 <defs>
  <symbol height="50px" id="svg_6" viewBox="0 0 50 50" width="50px" xmlns:xlink="http://www.w3.org/1999/xlink">
   <rect id="svg_5" fill="none" height="50" width="50"/>
   <line id="svg_10" fill="none" stroke="#000000" stroke-linecap="round" stroke-linejoin="round" stroke-miterlimit="10" stroke-width="2" x1="18.594" x2="3.373" y1="47.92" y2="5.407"/>
   <path id="svg_11" d="m4.448,8.409c0,0 5.911,-6.409 16.179,-6.409c6.25,0 9.106,4.073 14.264,4.073c5.155,0 10.107,-4.073 10.107,-4.073l0,26.471c0,0 -3.723,2.037 -8.146,2.037c-4.421,0 -6.225,-2.037 -12.217,-2.037c-5.683,0 -11.025,5.516 -11.025,5.516l-9.162,-25.578z" fill="none" stroke="#000000" stroke-linecap="round" stroke-linejoin="round" stroke-miterlimit="10" stroke-width="2"/>
   <path id="svg_12" d="m4.448,8.409c0,0 3.067,-3.248 7.207,-4.584l3.164,8.124c0,0 -4.086,1.47 -7.422,4.605l-2.844,-7.845"/>
   <path id="svg_13" d="m14.819,11.949l3.412,8.759c0,0 2.683,-0.954 4.53,-0.954s3.678,0.271 3.678,0.271l-2.477,-9.315c0,0 -0.7,-0.099 -1.563,-0.099c-4.135,0 -7.58,1.338 -7.58,1.338z"/>
   <path id="svg_14" d="m10.72,25.776l2.89,8.21c0,0 3.997,-3.832 7.804,-4.91l-3.182,-8.368c-3.666,1.412 -7.512,5.068 -7.512,5.068z"/>
   <path id="svg_15" d="m21.676,2.111l2.287,8.598c1.85,0 6.994,2.521 6.994,2.521l-2.028,-8.879c-1.163,-0.435 -4.208,-2.096 -7.253,-2.24z"/>
   <path id="svg_16" d="m26.439,20.024l2.355,8.851c1.186,0 4.586,1.449 6.065,1.449l-1.988,-8.702c-1.914,-0.498 -5.012,-1.399 -6.432,-1.598z"/>
   <path id="svg_17" d="m30.957,13.231l1.915,8.392c0,0 1.916,0.354 3.231,0.354c1.314,0 2.953,-0.298 2.953,-0.298l-0.622,-7.684c0,0 -1.269,0.394 -2.807,0.394c-2.402,0 -4.67,-1.158 -4.67,-1.158z"/>
   <path id="svg_18" d="m37.762,5.671l0.673,8.323c0,0 3.129,-0.786 6.565,-3.384l-0.002,-8.61c-3.945,3.022 -7.236,3.671 -7.236,3.671z"/>
   <path id="svg_19" d="m39.057,21.679c0,0 3.014,-0.559 5.941,-2.259l0,9.051c-3.117,1.496 -5.261,1.767 -5.261,1.767l-0.68,-8.559z"/>
  </symbol>
 </defs>
 <g>
  <title>Layer 1</title>
  <g stroke="null" id="svg_1" fill="#e74c3c">
   <path stroke="null" id="svg_2" fill="#444444" d="m11.49999,2.90162c-6.09327,0 -11.03279,4.93952 -11.03279,11.03279c0,1.95971 0.52627,3.79252 1.42212,5.38677c0.14881,0.26478 0.30478,0.52543 0.47413,0.77642l9.13653,15.9024l9.13653,-15.9024c0.14067,-0.20823 0.26203,-0.42889 0.38753,-0.64679l0.08688,-0.12963c0.89503,-1.59425 1.42185,-3.42706 1.42185,-5.38677c0,-6.09327 -4.93994,-11.03279 -11.0328,-11.03279zm0,5.5164c3.04643,0 5.5164,2.46983 5.5164,5.51639c0,3.04643 -2.46997,5.5164 -5.5164,5.5164c-3.04656,0 -5.51639,-2.46997 -5.51639,-5.5164c0,-3.04656 2.46983,-5.51639 5.51639,-5.51639z"/>
  </g>
  <ellipse stroke="#000" fill="#ffffff" stroke-width="0" cx="11.54626" cy="13.64344" id="svg_4" rx="8.70318" ry="8.53363"/>
  <use stroke="#444444" id="svg_9" xlink:href="#svg_6" transform="matrix(0.261255 0 0 0.261255 -1.17547 -0.707604)" y="32.82923" x="23.69481" fill="#444444" stroke-width="0"/>
 </g>
</svg>