<svg xmlns="http://www.w3.org/2000/svg" xmlns:xlink="http://www.w3.org/1999/xlink" version="1.1" width="330" height="450" style="" xml:space="preserve"><rect id="backgroundrect" width="100%" height="100%" x="0" y="0" fill="none" stroke="none" class="" style=""/>
















<g class="currentLayer" style=""><title>Layer 1</title>
	
<rect fill="#ffffff" stroke-dashoffset="" fill-rule="nonzero" x="76.19726062256865" y="43.585274053702705" width="222.39810443306624" height="167.14903879037368" style="color: rgb(255, 255, 255);" class="" id="svg_22" transform="rotate(-19.61378288269043 187.39630126953134,127.15979766845706) "/><g id="svg_2" fill="#219b00" class="">
		<path d="M28.773400850296014,75.9134957318306 c-1.8770000000000002,-7.41 -9.408,-11.893 -16.818,-10.018 c-7.413,1.879 -11.897,9.409 -10.019,16.821 l90.439,356.838 c1.589,6.271 7.224,10.446 13.409,10.446 c1.127,0 2.271,-0.139 3.4130000000000003,-0.4280000000000003 c7.409,-1.8770000000000002 11.895,-9.409 10.017,-16.819 L28.773400850296014,75.9134957318306 z" id="svg_3" fill="#219b00"/>
		<path d="M329.80840085029604,176.4194957318306 c-14.739,-54.423 -29.492,-108.842 -44.234,-163.265 c-1.598,-5.891 -4.399,-12.21 -14.929,-12.842 C187.75740085029602,-5.690504268169403 133.331400850296,76.8544957318306 50.442400850296025,70.85049573183059 c-6.541,-0.806 -10.745000000000001,2.6 -9.148,8.491 c14.743,54.422 29.372,108.877 44.233,163.266 c2.3850000000000002,8.729 8.388,12.035 14.931000000000001,12.842 c82.887,6.004 137.315,-76.541 220.205,-70.537 C327.203400850296,185.7164957318306 331.405400850296,182.3114957318306 329.80840085029604,176.4194957318306 zM264.76240085029605,20.857495731830596 c4.066,15.015 8.138,30.029 12.204,45.044 c-17.436,0.5740000000000006 -32.825,4.092 -49.132,10.203 c-4.065,-15.015 -8.137,-30.03 -12.202,-45.044 C231.937400850296,24.951495731830597 247.326400850296,21.430495731830597 264.76240085029605,20.857495731830596 zM93.95840085029602,189.1974957318306 c-4.627,-17.059 -9.246,-34.122 -13.868,-51.182 c18.328,-0.531 34.591,-4.503 51.602,-11.227 c-4.07,-15.015 -8.138,-30.03 -12.204,-45.045 c16.629,-7.433 32.314,-16.332 48.022,-25.523 c4.066,15.014 8.138,30.029 12.205,45.044 c-15.709,9.19 -31.395,18.092 -48.023,25.524 c4.623,17.06 9.244,34.122 13.866,51.182 C128.546400850296,184.6934957318306 112.28540085029601,188.6654957318306 93.95840085029602,189.1974957318306 zM157.94240085029602,223.6744957318306 c-4.129,-15.234 -8.256,-30.47 -12.384,-45.706 c16.513,-7.377 32.087,-16.201 47.683,-25.327 c4.128,15.236 8.256,30.471 12.383000000000001,45.707 C190.03040085029602,207.4754957318306 174.45440085029603,216.2974957318306 157.94240085029602,223.6744957318306 zM193.57840085029602,152.4454957318306 c-4.619,-17.061 -9.242,-34.122 -13.863,-51.183 c15.706,-9.17 31.403,-17.945 48.119,-25.157 c4.6240000000000006,17.06 9.246,34.121 13.867,51.181 C224.98840085029605,134.5004957318306 209.28640085029605,143.2744957318306 193.57840085029602,152.4454957318306 zM254.37340085029604,172.8764957318306 c-4.129,-15.234 -8.256,-30.47 -12.385,-45.706 c16.211,-6.045 31.521,-9.521 48.843,-10.086 c4.129,15.236 8.257,30.471 12.386,45.705 C285.894400850296,163.3554957318306 270.58240085029604,166.8304957318306 254.37340085029604,172.8764957318306 z" id="svg_4" fill="#219b00"/>
	</g><g fill="#444444" class="" id="svg_23" fill-opacity="1">
		<path d="M28.773400850296014,75.9134957318306 c-1.8770000000000002,-7.41 -9.408,-11.893 -16.818,-10.018 c-7.413,1.879 -11.897,9.409 -10.019,16.821 l90.439,356.838 c1.589,6.271 7.224,10.446 13.409,10.446 c1.127,0 2.271,-0.139 3.4130000000000003,-0.4280000000000003 c7.409,-1.8770000000000002 11.895,-9.409 10.017,-16.819 L28.773400850296014,75.9134957318306 z" id="svg_25" fill="#444444"/>
		<path d="M329.80840085029604,176.4194957318306 c-14.739,-54.423 -29.492,-108.842 -44.234,-163.265 c-1.598,-5.891 -4.399,-12.21 -14.929,-12.842 C187.75740085029602,-5.690504268169403 133.331400850296,76.8544957318306 50.442400850296025,70.85049573183059 c-6.541,-0.806 -10.745000000000001,2.6 -9.148,8.491 c14.743,54.422 29.372,108.877 44.233,163.266 c2.3850000000000002,8.729 8.388,12.035 14.931000000000001,12.842 c82.887,6.004 137.315,-76.541 220.205,-70.537 C327.203400850296,185.7164957318306 331.405400850296,182.3114957318306 329.80840085029604,176.4194957318306 zM264.76240085029605,20.857495731830596 c4.066,15.015 8.138,30.029 12.204,45.044 c-17.436,0.5740000000000006 -32.825,4.092 -49.132,10.203 c-4.065,-15.015 -8.137,-30.03 -12.202,-45.044 C231.937400850296,24.951495731830597 247.326400850296,21.430495731830597 264.76240085029605,20.857495731830596 zM93.95840085029602,189.1974957318306 c-4.627,-17.059 -9.246,-34.122 -13.868,-51.182 c18.328,-0.531 34.591,-4.503 51.602,-11.227 c-4.07,-15.015 -8.138,-30.03 -12.204,-45.045 c16.629,-7.433 32.314,-16.332 48.022,-25.523 c4.066,15.014 8.138,30.029 12.205,45.044 c-15.709,9.19 -31.395,18.092 -48.023,25.524 c4.623,17.06 9.244,34.122 13.866,51.182 C128.546400850296,184.6934957318306 112.28540085029601,188.6654957318306 93.95840085029602,189.1974957318306 zM157.94240085029602,223.6744957318306 c-4.129,-15.234 -8.256,-30.47 -12.384,-45.706 c16.513,-7.377 32.087,-16.201 47.683,-25.327 c4.128,15.236 8.256,30.471 12.383000000000001,45.707 C190.03040085029602,207.4754957318306 174.45440085029603,216.2974957318306 157.94240085029602,223.6744957318306 zM193.57840085029602,152.4454957318306 c-4.619,-17.061 -9.242,-34.122 -13.863,-51.183 c15.706,-9.17 31.403,-17.945 48.119,-25.157 c4.6240000000000006,17.06 9.246,34.121 13.867,51.181 C224.98840085029605,134.5004957318306 209.28640085029605,143.2744957318306 193.57840085029602,152.4454957318306 zM254.37340085029604,172.8764957318306 c-4.129,-15.234 -8.256,-30.47 -12.385,-45.706 c16.211,-6.045 31.521,-9.521 48.843,-10.086 c4.129,15.236 8.257,30.471 12.386,45.705 C285.894400850296,163.3554957318306 270.58240085029604,166.8304957318306 254.37340085029604,172.8764957318306 z" id="svg_27" fill="#444444"/>
	</g><g id="svg_5" class="">
</g><g id="svg_6" class="">
</g><g id="svg_7" class="">
</g><g id="svg_8" class="">
</g><g id="svg_9" class="">
</g><g id="svg_10" class="">
</g><g id="svg_11" class="">
</g><g id="svg_12" class="">
</g><g id="svg_13" class="">
</g><g id="svg_14" class="">
</g><g id="svg_15" class="">
</g><g id="svg_16" class="">
</g><g id="svg_17" class="">
</g><g id="svg_18" class="">
</g><g id="svg_19" class="">
</g></g></svg>