<svg xmlns="http://www.w3.org/2000/svg" xmlns:xlink="http://www.w3.org/1999/xlink" version="1.1" width="472" height="452" style="" xml:space="preserve"><rect id="backgroundrect" width="100%" height="100%" x="0" y="0" fill="none" stroke="none" class="" style=""/>
















<g class="currentLayer" style=""><title>Layer 1</title><rect fill="#ffffff" stroke-dashoffset="" fill-rule="nonzero" x="28.936687411473507" y="73.53843056879438" width="203.23196634976017" height="137.09813159904752" style="color: rgb(255, 255, 255);" class="" transform="rotate(22.26329231262207 130.5526733398439,142.08749389648435) " id="svg_48"/>
	
<g id="svg_18" class="">
</g><g id="svg_19" class="">
</g><rect fill="#ffffff" stroke-dashoffset="" fill-rule="nonzero" x="218.19725799560547" y="43.58527687191963" width="222.39810180664062" height="167.14903259277344" style="color: rgb(255, 255, 255);" class="" id="svg_22" transform="rotate(-19.61378288269043 329.3963012695313,127.15979766845697) "/><g id="svg_2" fill="#219b00" class="">
		<path d="M170.773400850296,75.91349886107444 c-1.8770000000000002,-7.41 -9.408,-11.893 -16.818,-10.018 c-7.413,1.879 -11.897,9.409 -10.019,16.821 l90.439,356.838 c1.589,6.271 7.224,10.446 13.409,10.446 c1.127,0 2.271,-0.139 3.4130000000000003,-0.4280000000000003 c7.409,-1.8770000000000002 11.895,-9.409 10.017,-16.819 L170.773400850296,75.91349886107444 z" id="svg_3" fill="#219b00"/>
		<path d="M471.80840085029604,176.41949886107446 c-14.739,-54.423 -29.492,-108.842 -44.234,-163.265 c-1.598,-5.891 -4.399,-12.21 -14.929,-12.842 C329.757400850296,-5.690501138925552 275.331400850296,76.85449886107445 192.44240085029602,70.85049886107444 c-6.541,-0.806 -10.745000000000001,2.6 -9.148,8.491 c14.743,54.422 29.372,108.877 44.233,163.266 c2.3850000000000002,8.729 8.388,12.035 14.931000000000001,12.842 c82.887,6.004 137.315,-76.541 220.205,-70.537 C469.203400850296,185.71649886107446 473.405400850296,182.31149886107445 471.80840085029604,176.41949886107446 zM406.76240085029605,20.857498861074447 c4.066,15.015 8.138,30.029 12.204,45.044 c-17.436,0.5740000000000006 -32.825,4.092 -49.132,10.203 c-4.065,-15.015 -8.137,-30.03 -12.202,-45.044 C373.937400850296,24.951498861074448 389.326400850296,21.430498861074447 406.76240085029605,20.857498861074447 zM235.95840085029602,189.19749886107445 c-4.627,-17.059 -9.246,-34.122 -13.868,-51.182 c18.328,-0.531 34.591,-4.503 51.602,-11.227 c-4.07,-15.015 -8.138,-30.03 -12.204,-45.045 c16.629,-7.433 32.314,-16.332 48.022,-25.523 c4.066,15.014 8.138,30.029 12.205,45.044 c-15.709,9.19 -31.395,18.092 -48.023,25.524 c4.623,17.06 9.244,34.122 13.866,51.182 C270.546400850296,184.69349886107446 254.285400850296,188.66549886107444 235.95840085029602,189.19749886107445 zM299.94240085029605,223.67449886107445 c-4.129,-15.234 -8.256,-30.47 -12.384,-45.706 c16.513,-7.377 32.087,-16.201 47.683,-25.327 c4.128,15.236 8.256,30.471 12.383000000000001,45.707 C332.030400850296,207.47549886107444 316.454400850296,216.29749886107444 299.94240085029605,223.67449886107445 zM335.578400850296,152.44549886107444 c-4.619,-17.061 -9.242,-34.122 -13.863,-51.183 c15.706,-9.17 31.403,-17.945 48.119,-25.157 c4.6240000000000006,17.06 9.246,34.121 13.867,51.181 C366.98840085029605,134.50049886107445 351.28640085029605,143.27449886107445 335.578400850296,152.44549886107444 zM396.37340085029604,172.87649886107445 c-4.129,-15.234 -8.256,-30.47 -12.385,-45.706 c16.211,-6.045 31.521,-9.521 48.843,-10.086 c4.129,15.236 8.257,30.471 12.386,45.705 C427.894400850296,163.35549886107444 412.58240085029604,166.83049886107446 396.37340085029604,172.87649886107445 z" id="svg_4" fill="#219b00"/>
	</g><rect fill="#ffffff" stroke-dashoffset="" fill-rule="nonzero" x="29.936687411473507" y="42.53843056879438" width="203.23196634976017" height="137.09813159904752" style="color: rgb(255, 255, 255);" class="" transform="rotate(16.200489044189453 131.55267333984366,111.08749389648438) " id="svg_50"/><g fill="#444444" class="" fill-opacity="1" transform="rotate(-0.6573905348777771 149.2413330078042,227.41557312011753) " id="svg_29">
		<path d="M272.779698430268,78.32883113551289 c1.6918867370242427,-7.41 8.480165381952087,-11.893 15.159377273987054,-10.018 c6.681916026404212,1.879 10.723695530302296,9.409 9.03090741515497,16.821 l-81.51973607338061,356.838 c-1.432289837576729,6.271 -6.5115555611417815,10.446 -12.086579252401737,10.446 c-1.0158531447130106,0 -2.047029717518409,-0.139 -3.0764035340776443,-0.4280000000000003 c-6.678310513911885,-1.8770000000000002 -10.721892774056132,-9.409 -9.029104658908807,-16.819 L272.779698430268,78.32883113551289 z" id="svg_31" fill="#444444"/>
		<path d="M1.433335148385936,178.8348311355129 c13.285412156100323,-54.423 26.583443605923787,-108.842 39.87155989639336,-163.265 c1.440402240684464,-5.891 3.9651623634361433,-12.21 13.456673999485833,-12.842 C129.47499891025632,-3.2751688644871138 178.53340463709776,79.26983113551289 253.24773588121195,73.26583113551288 c5.895914303077021,-0.806 9.685307932512243,2.6 8.245807069950862,8.491 c-13.289017668592647,54.422 -26.47527823115399,108.877 -39.87065851827027,163.266 c-2.1497868235497166,8.729 -7.560759696408813,12.035 -13.458476755731997,12.842 c-74.71252848786807,6.004 -123.77273697095568,-76.541 -198.487969593193,-70.537 C3.7814251590136223,188.1318311355129 -0.00616571417543821,184.7268311355129 1.433335148385936,178.8348311355129 zM60.06437654235441,23.27283113551288 c-3.6650034484499563,15.015 -7.335415165638403,30.029 -11.00041861408836,45.044 c15.716428954051512,0.5740000000000006 29.5877368901549,4.092 44.28650994324723,10.203 c3.664102070326875,-15.015 7.3345137875153235,-30.03 10.998615857842196,-45.044 C89.6521134325094,27.366831135512882 75.78080549640595,23.84583113551288 60.06437654235441,23.27283113551288 zM214.0233654771912,191.6128311355129 c4.170676575498757,-17.059 8.334142126012862,-34.122 12.50031181089621,-51.182 c-16.520458239840334,-0.531 -31.179570655517075,-4.503 -46.51291390725889,-11.227 c3.668608960942283,-15.015 7.335415165638403,-30.03 11.00041861408836,-45.045 c-14.989016808724626,-7.433 -29.12713266926018,-16.332 -43.28598022662661,-25.523 c-3.6650034484499563,15.014 -7.335415165638403,30.029 -11.00131999221144,45.044 c14.159748935489514,9.19 28.29876617414815,18.092 43.286881604749695,25.524 c-4.167071063006431,17.06 -8.332339369766698,34.122 -12.498509054650048,51.182 C182.84649895604343,187.1088311355129 197.50380861547401,191.08083113551288 214.0233654771912,191.6128311355129 zM156.34958764993542,226.0898311355129 c3.7217902702041012,-15.234 7.441777784162036,-30.47 11.162666676243054,-45.706 c-14.884456946447157,-7.377 -28.92251983532065,-16.201 -42.98041304290194,-25.327 c-3.7208888920810184,15.236 -7.441777784162036,30.471 -11.161765298119974,45.707 C127.42616643649171,209.89083113551288 141.4660320816114,218.7128311355129 156.34958764993542,226.0898311355129 zM124.22807685579801,154.86083113551288 c4.163465550514105,-17.061 8.330536613520536,-34.122 12.495804920280802,-51.183 c-14.157044801120268,-9.17 -28.305977199132805,-17.945 -43.37341390456553,-25.157 c-4.167972441129513,17.06 -8.334142126012862,34.121 -12.49941043277313,51.181 C95.91579000980369,136.9158311355129 110.06922929843154,145.6898311355129 124.22807685579801,154.86083113551288 zM69.42879386304963,175.2918311355129 c3.7217902702041012,-15.234 7.441777784162036,-30.47 11.163568054366134,-45.706 c-14.612240753276495,-6.045 -28.412339817656438,-9.521 -44.02601166567665,-10.086 c-3.7217902702041012,15.236 -7.442679162285118,30.471 -11.164469432489216,45.705 C41.016454045393175,165.77083113551288 54.81835586601926,169.2458311355129 69.42879386304963,175.2918311355129 z" id="svg_33" fill="#444444"/>
	</g><g id="svg_5" class="">
</g><g id="svg_6" class="">
</g><g id="svg_7" class="">
</g><g id="svg_8" class="">
</g><g id="svg_9" class="">
</g><g id="svg_10" class="">
</g><g id="svg_11" class="">
</g><g id="svg_12" class="">
</g><g id="svg_13" class="">
</g><g id="svg_14" class="">
</g><g id="svg_15" class="">
</g><g id="svg_16" class="">
</g><g id="svg_17" class="">
</g></g></svg>