<svg xmlns="http://www.w3.org/2000/svg" width="21" height="31" style=""><rect id="backgroundrect" width="100%" height="100%" x="0" y="0" fill="none" stroke="none"/>
 <g style="">
  <title>background</title>
  <rect fill="none" id="canvas_background" height="30.700000762939453" width="21" y="-1" x="-1"/>
 </g>

 <g style="" class="currentLayer">
  <title>Layer 1</title>
  <g stroke="null" id="svg_1" class="selected" fill-opacity="1" fill="#00c5dc">
   <path stroke="null" id="svg_2" fill="#00c5dc" d="m10.460273,1.07042 c-5.232567,0 -9.474353,4.241786 -9.474353,9.474353 c0,1.6828820000000002 0.451927,3.256809 1.221244,4.625853 c0.127785,0.22738400000000003 0.261729,0.451216 0.40716,0.6667580000000002 l7.845948,13.656095 l7.845948,-13.656095 c0.12079800000000002,-0.17882800000000001 0.22501600000000005,-0.36831500000000006 0.33278700000000005,-0.555434 l0.07461100000000001,-0.11132400000000002 c0.7686070000000002,-1.3690440000000001 1.221007,-2.942971 1.221007,-4.625853 c0,-5.232567 -4.242141,-9.474353 -9.474353,-9.474353 zm0,4.737176 c2.6161060000000003,0 4.737176,2.120952 4.737176,4.737176 c0,2.6161060000000003 -2.121071,4.737176 -4.737176,4.737176 c-2.616224,0 -4.737176,-2.121071 -4.737176,-4.737176 c0,-2.616224 2.120952,-4.737176 4.737176,-4.737176 z"/>
   <path stroke="null" id="svg_3" fill="#00c5dc" d="m10.460273,4.623302 c-3.2703100000000003,0 -5.921471,2.651161 -5.921471,5.921471 c0,3.269836 2.651161,5.921471 5.921471,5.921471 c3.269836,0 5.921471,-2.651635 5.921471,-5.921471 c0,-3.2703100000000003 -2.651635,-5.921471 -5.921471,-5.921471 zm0,2.368588 c1.9623750000000002,0 3.552882,1.5906250000000002 3.552882,3.552882 s-1.5905070000000001,3.552882 -3.552882,3.552882 s-3.552882,-1.5906250000000002 -3.552882,-3.552882 s1.5905070000000001,-3.552882 3.552882,-3.552882 z"/>
  </g>
  <ellipse stroke="#000" ry="7.328214168548584" rx="7.4738078117370605" id="svg_4" cy="10.294896125793457" cx="10.5" stroke-width="0" fill="#ffffff" class=""/>
  <ellipse id="svg_7" cy="9.722050666809082" cx="11.07746410369873" stroke-opacity="null" stroke-width="0" stroke="#000" fill="#ffffff" class="" ry="0" rx="0"/>
  <ellipse id="svg_8" cy="10.144586563110352" cx="9.176055908203125" stroke-opacity="null" stroke-width="0" stroke="#000" fill="#ffffff" class="" ry="0" rx="0"/>
 </g>
</svg>