<svg id="Capa_1" enable-background="new 0 0 512 512" height="512" viewBox="0 0 512 512" width="512" xmlns="http://www.w3.org/2000/svg"><g><g><path d="m59.063 256c0 108.592 88.346 196.938 196.938 196.938l60.655-193.134-60.656-200.742c-108.592 0-196.937 88.346-196.937 196.938z" fill="#ffea80"/><path d="m256 59.062v393.876c108.592 0 196.938-88.347 196.938-196.938s-88.346-196.938-196.938-196.938z" fill="#fc6"/></g><g><g><g><g><g><path d="m88.078 449.25c-4.472-3.896-8.878-8.011-13.098-12.23-48.351-48.353-74.98-112.641-74.98-181.02s26.629-132.667 74.98-181.02c4.357-4.357 8.922-8.609 13.566-12.638l19.656 22.662c-4.11 3.566-8.151 7.33-12.01 11.188-42.684 42.687-66.192 99.441-66.192 159.808s23.508 117.12 66.193 159.807c3.736 3.736 7.637 7.378 11.592 10.824z" fill="#f33"/></g></g><g><g><path d="m424.001 449.18-19.715-22.611c3.927-3.424 7.803-7.045 11.521-10.763 42.685-42.686 66.193-99.44 66.193-159.806s-23.508-117.12-66.193-159.807c-3.858-3.858-7.899-7.622-12.01-11.188l19.656-22.662c4.645 4.027 9.209 8.28 13.566 12.638 48.352 48.352 74.981 112.639 74.981 181.019s-26.629 132.667-74.98 181.02c-4.2 4.198-8.58 8.29-13.019 12.16z" fill="#e62e2e"/></g></g></g></g></g><g fill="#f33"><path d="m234.219 156.905 7.064 137.75h14.717l8.715-72.091-8.715-65.659z"/><path d="m232.453 342.044c0 12.566 9.867 22.805 23.547 22.952l11.655-21.893-11.655-23.717c-13.68.142-23.547 10.092-23.547 22.658z"/></g><g fill="#e62e2e"><path d="m277.781 156.905h-21.781v137.75h14.422z"/><path d="m256.295 319.38c-.099 0-.196.006-.295.007v45.609c.099.001.196.007.295.007 13.539 0 23.252-10.302 23.252-22.959 0-12.656-9.713-22.664-23.252-22.664z"/></g></g></svg>