<svg width="18.999999999999996" height="28.7" xmlns="http://www.w3.org/2000/svg">
 <g>
  <title>background</title>
  <rect x="-1" y="-1" width="21" height="30.7" id="canvas_background" fill="none"/>
 </g>

 <g>
  <title>Layer 1</title>
  <path d="m9.46027,0.07042c-5.23256,0 -9.47435,4.24179 -9.47435,9.47435c0,1.68289 0.45193,3.25681 1.22124,4.62586c0.12779,0.22738 0.26173,0.45121 0.40716,0.66675l7.84595,13.6561l7.84595,-13.6561c0.1208,-0.17882 0.22502,-0.36831 0.33279,-0.55543l0.07461,-0.11132c0.7686,-1.36905 1.22101,-2.94297 1.22101,-4.62586c0,-5.23256 -4.24215,-9.47435 -9.47436,-9.47435zm0,4.73718c2.61611,0 4.73718,2.12095 4.73718,4.73717c0,2.61611 -2.12107,4.73718 -4.73718,4.73718c-2.61622,0 -4.73717,-2.12107 -4.73717,-4.73718c0,-2.61622 2.12095,-4.73717 4.73717,-4.73717z" fill="#666666" id="svg_2" stroke="null"/>
  <path d="m9.46027,3.6233c-3.27031,0 -5.92147,2.65116 -5.92147,5.92147c0,3.26984 2.65116,5.92147 5.92147,5.92147c3.26984,0 5.92147,-2.65163 5.92147,-5.92147c0,-3.27031 -2.65163,-5.92147 -5.92147,-5.92147zm0,2.36859c1.96238,0 3.55289,1.59062 3.55289,3.55288s-1.59051,3.55288 -3.55289,3.55288s-3.55288,-1.59062 -3.55288,-3.55288s1.59051,-3.55288 3.55288,-3.55288z" fill="#005fbf" id="svg_3" stroke="null"/>
  <ellipse stroke="#000" fill="#ffffff" stroke-width="0" cx="9.419355" cy="9.215822" id="svg_4" rx="7.393163" ry="7.24914"/>
  <ellipse fill="#ffffff" stroke="#000" stroke-width="0" stroke-opacity="null" cx="10.077464" cy="8.722051" id="svg_7"/>
  <ellipse fill="#ffffff" stroke="#000" stroke-width="0" stroke-opacity="null" cx="8.176056" cy="9.144587" id="svg_8"/>
 </g>
</svg>