<?xml version="1.0"?>
<svg width="18.999999999999996" height="28.7" xmlns="http://www.w3.org/2000/svg" xmlns:svg="http://www.w3.org/2000/svg">
 <g class="layer">
  <title>background</title>
  <rect fill="none" height="30.7" id="canvas_background" width="21" x="-1" y="-1"/>
 </g>
 <g class="layer">
  <title>Layer 1</title>
  <g id="svg_1">
   <path d="m9.46,0.07c-5.23,0 -9.47,4.24 -9.47,9.47c0,1.69 0.45,3.26 1.22,4.63c0.12,0.23 0.26,0.45 0.4,0.67l7.85,13.65l7.85,-13.65c0.12,-0.18 0.22,-0.37 0.33,-0.56l0.07,-0.11c0.77,-1.37 1.22,-2.94 1.22,-4.63c0,-5.23 -4.24,-9.47 -9.47,-9.47zm0,4.74c2.62,0 4.74,2.12 4.74,4.73c0,2.62 -2.12,4.74 -4.74,4.74c-2.62,0 -4.74,-2.12 -4.74,-4.74c0,-2.61 2.12,-4.73 4.74,-4.73z" fill="#5f00bf" id="svg_2"/>
   <path d="m9.46,3.62c-3.27,0 -5.92,2.65 -5.92,5.92c0,3.27 2.65,5.93 5.92,5.93c3.27,0 5.92,-2.66 5.92,-5.93c0,-3.27 -2.65,-5.92 -5.92,-5.92zm0,2.37c1.96,0 3.55,1.59 3.55,3.55s-1.59,3.56 -3.55,3.56s-3.55,-1.59 -3.55,-3.56s1.59,-3.55 3.55,-3.55z" fill="#5f00bf" id="svg_3"/>
  </g>
  <ellipse cx="9.5" cy="9.29" fill="#ffffff" id="svg_4" rx="7.47" ry="7.33" stroke="#000" stroke-width="0"/>
  <ellipse cx="10.08" cy="8.72" fill="#ffffff" id="svg_7" stroke="#000" stroke-width="0"/>
  <ellipse cx="8.18" cy="9.14" fill="#ffffff" id="svg_8" stroke="#000" stroke-width="0"/>
 </g>
</svg>