<svg width="18.999999999999996" height="28.7" xmlns="http://www.w3.org/2000/svg">
 <g>
  <title>background</title>
  <rect x="-1" y="-1" width="21" height="30.7" id="canvas_background" fill="none"/>
 </g>

 <g>
  <title>Layer 1</title>
  <g fill="#005fbf" id="svg_1" stroke="null">
   <path d="m9.46027,0.07042c-5.23256,0 -9.47435,4.24179 -9.47435,9.47435c0,1.68289 0.45193,3.25681 1.22124,4.62586c0.12779,0.22738 0.26173,0.45121 0.40716,0.66675l7.84595,13.6561l7.84595,-13.6561c0.1208,-0.17882 0.22502,-0.36831 0.33279,-0.55543l0.07461,-0.11132c0.7686,-1.36905 1.22101,-2.94297 1.22101,-4.62586c0,-5.23256 -4.24215,-9.47435 -9.47436,-9.47435zm0,4.73718c2.61611,0 4.73718,2.12095 4.73718,4.73717c0,2.61611 -2.12107,4.73718 -4.73718,4.73718c-2.61622,0 -4.73717,-2.12107 -4.73717,-4.73718c0,-2.61622 2.12095,-4.73717 4.73717,-4.73717z" fill="#2c509b" id="svg_2" stroke="null"/>
  </g>
  <path id="svg_6" d="m9.41701,15.92676c-3.75965,0 -6.80497,-3.04532 -6.80497,-6.80497c0,-3.75965 3.04532,-6.80497 6.80497,-6.80497c3.75965,0 6.80497,3.04532 6.80497,6.80497c0,3.75965 -3.04532,6.80497 -6.80497,6.80497z" opacity="undefined" stroke="#ffffff" fill="#2c509b"/>
  <ellipse fill="#ffffff" stroke="#000" stroke-width="0" stroke-opacity="null" cx="10.07746" cy="8.72205" id="svg_7"/>
  <ellipse fill="#ffffff" stroke="#000" stroke-width="0" stroke-opacity="null" cx="8.17606" cy="9.14459" id="svg_8"/>
  <text transform="matrix(1 0 0 1 0 0)" font-weight="bold" xml:space="preserve" text-anchor="start" font-family="'Arimo'" font-size="11" stroke-width="0" id="svg_10" y="12.93921" x="5.83085" stroke="#ffffff" fill="#ffffff">P</text>
 </g>
</svg>