<?xml version="1.0" encoding="UTF-8" standalone="no" ?>
<!DOCTYPE svg PUBLIC "-//W3C//DTD SVG 1.1//EN" "http://www.w3.org/Graphics/SVG/1.1/DTD/svg11.dtd">
<svg xmlns="http://www.w3.org/2000/svg" xmlns:xlink="http://www.w3.org/1999/xlink" version="1.1" width="200" height="200" viewBox="0 0 200 200" xml:space="preserve">
<desc>Created with Fabric.js 5.2.4</desc>
<defs>
</defs>
<rect x="0" y="0" width="100%" height="100%" fill="transparent"></rect>
<g transform="matrix(Infinity NaN NaN Infinity 0 0)" id="eeb14e27-819c-4224-b22f-db69cb2b516f"  >
</g>
<g transform="matrix(1 0 0 1 100 100)" id="7bce3348-db90-4315-a2ba-c37b32775f5b"  >
<rect style="stroke: none; stroke-width: 1; stroke-dasharray: none; stroke-linecap: butt; stroke-dashoffset: 0; stroke-linejoin: miter; stroke-miterlimit: 4; fill: rgb(255,255,255); fill-rule: nonzero; opacity: 1; visibility: hidden;" vector-effect="non-scaling-stroke"  x="-100" y="-100" rx="0" ry="0" width="200" height="200" />
</g>
<g transform="matrix(0.19 0 0 0.19 200.67 201.03)"  >
<g style="" vector-effect="non-scaling-stroke"   >
		<g transform="matrix(1 0 0 1 9.5 14.35)" id="canvas_background"  >
<rect style="stroke: none; stroke-width: 1; stroke-dasharray: none; stroke-linecap: butt; stroke-dashoffset: 0; stroke-linejoin: miter; stroke-miterlimit: 4; fill: none; fill-rule: nonzero; opacity: 1;" vector-effect="non-scaling-stroke"  x="-10.5" y="-15.35" rx="0" ry="0" width="21" height="30.7" />
</g>
		<g transform="matrix(1 0 0 1 9.46 14.28)"  >
<path style="stroke: none; stroke-width: 1; stroke-dasharray: none; stroke-linecap: butt; stroke-dashoffset: 0; stroke-linejoin: miter; stroke-miterlimit: 4; fill: rgb(0,127,255); fill-rule: nonzero; opacity: 1;" vector-effect="non-scaling-stroke"  transform=" translate(-9.46, -14.28)" d="M 9.46 0.07 C 4.23 0.07 -0.009999999999999787 4.3100000000000005 -0.009999999999999787 9.540000000000001 C -0.009999999999999787 11.23 0.4400000000000002 12.8 1.2100000000000002 14.170000000000002 C 1.33 14.400000000000002 1.4700000000000002 14.620000000000001 1.6100000000000003 14.840000000000002 L 9.46 28.490000000000002 L 17.310000000000002 14.840000000000002 C 17.430000000000003 14.660000000000002 17.53 14.470000000000002 17.64 14.280000000000001 L 17.71 14.170000000000002 C 18.48 12.8 18.93 11.230000000000002 18.93 9.540000000000003 C 18.93 4.310000000000002 14.69 0.07000000000000206 9.459999999999999 0.07000000000000206 z M 9.46 4.8100000000000005 C 12.080000000000002 4.8100000000000005 14.200000000000001 6.930000000000001 14.200000000000001 9.540000000000001 C 14.200000000000001 12.16 12.080000000000002 14.280000000000001 9.46 14.280000000000001 C 6.840000000000001 14.280000000000001 4.720000000000001 12.16 4.720000000000001 9.540000000000001 C 4.720000000000001 6.9300000000000015 6.840000000000001 4.8100000000000005 9.46 4.8100000000000005 z" stroke-linecap="round" />
</g>
		<g transform="matrix(1 0 0 1 9.46 9.54)"  >
<path style="stroke: none; stroke-width: 1; stroke-dasharray: none; stroke-linecap: butt; stroke-dashoffset: 0; stroke-linejoin: miter; stroke-miterlimit: 4; fill: rgb(0,127,255); fill-rule: nonzero; opacity: 1;" vector-effect="non-scaling-stroke"  transform=" translate(-9.46, -9.54)" d="M 9.46 3.62 C 6.190000000000001 3.62 3.540000000000001 6.27 3.540000000000001 9.54 C 3.540000000000001 12.809999999999999 6.190000000000001 15.469999999999999 9.46 15.469999999999999 C 12.73 15.469999999999999 15.38 12.809999999999999 15.38 9.54 C 15.38 6.27 12.73 3.619999999999999 9.46 3.619999999999999 z M 9.46 5.99 C 11.420000000000002 5.99 13.010000000000002 7.58 13.010000000000002 9.54 C 13.010000000000002 11.499999999999998 11.420000000000002 13.1 9.46 13.1 C 7.5 13.1 5.910000000000001 11.51 5.910000000000001 9.54 C 5.910000000000001 7.5699999999999985 7.500000000000001 5.989999999999999 9.46 5.989999999999999 z" stroke-linecap="round" />
</g>
		<g transform="matrix(1 0 0 1 9.5 9.29)" id="svg_4"  >
<ellipse style="stroke: rgb(0,0,0); stroke-width: 0; stroke-dasharray: none; stroke-linecap: butt; stroke-dashoffset: 0; stroke-linejoin: miter; stroke-miterlimit: 4; fill: rgb(255,255,255); fill-rule: nonzero; opacity: 1;" vector-effect="non-scaling-stroke"  cx="0" cy="0" rx="7.47" ry="7.33" />
</g>
		<g transform="matrix(1 0 0 1 0 0)" id="svg_7"  >
<ellipse style="stroke: rgb(0,0,0); stroke-width: 0; stroke-dasharray: none; stroke-linecap: butt; stroke-dashoffset: 0; stroke-linejoin: miter; stroke-miterlimit: 4; fill: rgb(255,255,255); fill-rule: nonzero; opacity: 1;" vector-effect="non-scaling-stroke"  cx="0" cy="0" rx="0" ry="0" />
</g>
		<g transform="matrix(1 0 0 1 0 0)" id="svg_8"  >
<ellipse style="stroke: rgb(0,0,0); stroke-width: 0; stroke-dasharray: none; stroke-linecap: butt; stroke-dashoffset: 0; stroke-linejoin: miter; stroke-miterlimit: 4; fill: rgb(255,255,255); fill-rule: nonzero; opacity: 1;" vector-effect="non-scaling-stroke"  cx="0" cy="0" rx="0" ry="0" />
</g>
</g>
</g>
<g transform="matrix(0.38 0 0 0.38 100 100)"  >
<g style="" vector-effect="non-scaling-stroke"   >
		<g transform="matrix(1 0 0 1 0 0)"  >
<path style="stroke: none; stroke-width: 1; stroke-dasharray: none; stroke-linecap: butt; stroke-dashoffset: 0; stroke-linejoin: miter; stroke-miterlimit: 4; fill: rgb(40,169,177); fill-rule: nonzero; opacity: 1;" vector-effect="non-scaling-stroke"  transform=" translate(-256, -256)" d="M 256 0 C 158.897 0 88.276 80.331 88.276 167.724 C 88.276 220.69 106.814 248.938 131.531 300.138 C 180.966 402.538 256 512 256 512 C 256 512 331.034 402.538 380.469 300.13800000000003 C 405.186 248.93800000000005 423.724 220.69000000000005 423.724 167.72400000000005 C 423.724 80.331 353.103 0 256 0" stroke-linecap="round" />
</g>
		<g transform="matrix(1 0 0 1 0 -88.28)"  >
<path style="stroke: none; stroke-width: 1; stroke-dasharray: none; stroke-linecap: butt; stroke-dashoffset: 0; stroke-linejoin: miter; stroke-miterlimit: 4; fill: rgb(40,169,177); fill-rule: nonzero; opacity: 1;" vector-effect="non-scaling-stroke"  transform=" translate(-256, -167.72)" d="M 353.103 167.724 C 353.103 113.87599999999999 309.848 70.621 256 70.621 C 202.152 70.621 158.897 113.876 158.897 167.724 C 158.897 221.57199999999997 202.152 264.827 256 264.827 C 309.848 264.827 353.103 221.572 353.103 167.724" stroke-linecap="round" />
</g>
		<g transform="matrix(1 0 0 1 0 -110.35)"  >
<path style="stroke: none; stroke-width: 1; stroke-dasharray: none; stroke-linecap: butt; stroke-dashoffset: 0; stroke-linejoin: miter; stroke-miterlimit: 4; fill: rgb(40,169,177); fill-rule: nonzero; opacity: 1;" vector-effect="non-scaling-stroke"  transform=" translate(-256, -145.66)" d="M 256 194.207 C 250.703 194.207 247.172 190.676 247.172 185.379 L 247.172 105.931 C 247.172 100.634 250.703 97.103 256 97.103 C 261.297 97.103 264.828 100.634 264.828 105.931 L 264.828 185.379 C 264.828 190.676 261.297 194.207 256 194.207 z" stroke-linecap="round" />
</g>
		<g transform="matrix(1 0 0 1 0 -30.9)"  >
<path style="stroke: none; stroke-width: 1; stroke-dasharray: none; stroke-linecap: butt; stroke-dashoffset: 0; stroke-linejoin: miter; stroke-miterlimit: 4; fill: rgb(40,169,177); fill-rule: nonzero; opacity: 1;" vector-effect="non-scaling-stroke"  transform=" translate(-256, -225.1)" d="M 256 211.862 L 256 211.862 C 248.938 211.862 242.75900000000001 218.041 242.75900000000001 225.103 C 242.75900000000001 232.16500000000002 248.93800000000002 238.344 256 238.344 C 263.062 238.344 269.241 232.165 269.241 225.103 C 269.241 218.041 263.062 211.862 256 211.862" stroke-linecap="round" />
</g>
</g>
</g>
<g transform="matrix(1.63 0 0 1.63 100.15 64.3)" id="d2f894f2-cb65-4aad-87e4-e1f2109095e8"  >
<circle style="stroke: rgb(0,0,0); stroke-width: 0; stroke-dasharray: none; stroke-linecap: butt; stroke-dashoffset: 0; stroke-linejoin: miter; stroke-miterlimit: 4; fill: rgb(255,255,255); fill-rule: nonzero; opacity: 1;" vector-effect="non-scaling-stroke"  cx="0" cy="0" r="35" />
</g>
<g transform="matrix(0.23 0 0 0.22 100 65.35)"  >
<path style="stroke: rgb(0,0,0); stroke-width: 0; stroke-dasharray: none; stroke-linecap: butt; stroke-dashoffset: 0; stroke-linejoin: miter; stroke-miterlimit: 4; fill: rgb(0,0,0); fill-rule: nonzero; opacity: 1;" vector-effect="non-scaling-stroke"  transform=" translate(-211.26, -211.26)" d="M 422.512 215.424 C 422.512 215.345 422.508 215.26600000000002 422.507 215.187 C 422.391 209.89200000000002 418.139 205.673 412.78000000000003 205.673 L 410.22600000000006 205.673 L 370.7830000000001 129.41500000000002 C 369.1190000000001 126.19500000000002 365.80000000000007 124.19000000000003 362.1360000000001 124.18900000000002 L 294.79600000000005 124.17500000000003 L 297.36500000000007 103.81100000000002 C 298.09800000000007 95.67300000000002 295.58200000000005 87.98900000000002 290.27900000000005 82.17300000000002 C 284.98600000000005 76.36900000000001 277.59600000000006 73.17200000000001 269.46900000000005 73.17200000000001 L 60.46900000000005 73.17200000000001 C 55.21400000000005 73.17200000000001 50.75000000000005 77.23800000000001 50.24900000000005 82.48000000000002 L 48.15400000000005 99.25800000000001 L 167.23200000000006 99.25800000000001 C 174.96400000000006 99.25800000000001 181.06800000000007 105.52600000000001 180.86600000000004 113.25800000000001 C 180.66300000000004 120.99000000000001 174.23100000000005 127.25800000000001 166.49900000000005 127.25800000000001 L 126.78 127.25800000000001 C 126.787 127.278 126.794 127.29800000000002 126.801 127.31700000000001 L 10.163 127.31700000000001 C 4.695 127.31700000000001 0.1460000000000008 131.749 0.0030000000000001137 137.217 C -0.13999999999999987 142.685 4.176 147.11700000000002 9.644 147.11700000000002 L 164.06 147.11700000000002 C 171.228 148.22100000000003 176.583 154.42000000000002 176.386 161.925 C 176.17 170.167 169.347 176.85000000000002 161.119 176.919 L 54.661 176.919 C 49.138000000000005 176.919 44.544 181.39600000000002 44.399 186.919 C 44.254 192.442 48.614000000000004 196.919 54.137 196.919 L 159.341 196.919 C 166.614 197.93200000000002 172.07600000000002 204.181 171.87800000000001 211.75900000000001 C 171.661 220.043 164.769 226.75900000000001 156.485 226.75900000000001 L 35.792 226.75900000000001 L 35.792 226.77 L 25.651 226.77 C 20.128 226.77 15.533999999999999 231.247 15.389 236.77 C 15.244 242.293 19.603 246.77 25.127 246.77 L 33.879 246.77 L 30.455999999999996 282.588 C 29.721999999999994 290.725 32.238 298.40900000000005 37.541999999999994 304.225 C 42.833999999999996 310.03000000000003 50.224999999999994 313.226 58.35199999999999 313.226 L 65.90199999999999 313.226 C 69.5 333.8 87.3 349.345 109.073 349.345 C 130.846 349.345 149.45999999999998 333.8 154.13299999999998 313.22700000000003 L 248.35199999999998 313.22700000000003 C 255.96999999999997 313.22700000000003 263.18199999999996 310.314 268.83799999999997 305.545 C 274.01 310.509 280.866 313.22700000000003 288.352 313.22700000000003 L 289.902 313.22700000000003 C 293.49899999999997 333.8 311.299 349.345 333.073 349.345 C 354.846 349.345 373.46 333.8 378.133 313.22700000000003 L 384.352 313.22700000000003 C 400.553 313.22700000000003 414.921 300.05600000000004 416.381 283.867 L 422.47499999999997 216.36100000000002 C 422.48299999999995 216.27 422.479 216.18 422.48499999999996 216.08800000000002 C 422.49499999999995 215.949 422.51399999999995 215.81300000000002 422.518 215.67300000000003 C 422.52 215.589 422.512 215.508 422.512 215.424 z M 109.597 329.345 C 95.812 329.345 84.88999999999999 318.13100000000003 85.25099999999999 304.346 C 85.612 290.56 97.121 279.345 110.90599999999999 279.345 C 124.69099999999999 279.345 135.612 290.56 135.25099999999998 304.346 C 134.89 318.131 123.382 329.345 109.597 329.345 z M 333.597 329.345 C 319.81199999999995 329.345 308.89099999999996 318.13100000000003 309.251 304.346 C 309.61199999999997 290.56 321.121 279.345 334.90599999999995 279.345 C 348.691 279.345 359.61299999999994 290.56 359.251 304.346 C 358.89 318.131 347.382 329.345 333.597 329.345 z M 396.457 282.588 C 395.937 288.355 390.634 293.22700000000003 384.877 293.22700000000003 L 378.15000000000003 293.22700000000003 C 373.696 273.77400000000006 356.40600000000006 259.345 335.42900000000003 259.345 C 314.45200000000006 259.345 296.40700000000004 273.774 290.93500000000006 293.22700000000003 L 288.87600000000003 293.22700000000003 C 286.33400000000006 293.22700000000003 284.06600000000003 292.27400000000006 282.487 290.54200000000003 C 280.898 288.8 280.15000000000003 286.42900000000003 280.38100000000003 283.86600000000004 L 292.99 144.17500000000004 L 321.949 144.18100000000004 L 317.35900000000004 195.03300000000004 C 316.624 203.17000000000004 319.139 210.85400000000004 324.44200000000006 216.67000000000004 C 329.73400000000004 222.47600000000006 337.12700000000007 225.67400000000004 345.25500000000005 225.67400000000004 L 401.5930000000001 225.67400000000004 L 396.457 282.588 z" stroke-linecap="round" />
</g>
</svg>