<svg width="25" height="25" xmlns="http://www.w3.org/2000/svg">
 <defs>
  <linearGradient y2="0.5" y1="0.5" x2="1" x1="0" id="SVGID_1_">
   <stop stop-color="#00AEEE" offset="0"/>
   <stop stop-color="#0095DA" offset="1"/>
  </linearGradient>
  <linearGradient y2="0.5" y1="0.5" x2="1" x1="0" id="SVGID_2_">
   <stop stop-color="#0095DA" offset="0"/>
   <stop stop-color="#00AEEE" offset="1"/>
  </linearGradient>
 </defs>
 <g>
  <title>background</title>
  <rect fill="none" id="canvas_background" height="27" width="27" y="-1" x="-1"/>
 </g>
 <g>
  <title>Layer 1</title>
  <g stroke="null" id="svg_2">
   <circle stroke="null" id="svg_3" r="12.332151" fill="url(#SVGID_1_)" cy="12.498824" cx="12.49882"/>
   <path stroke="null" id="svg_4" fill="url(#SVGID_2_)" d="m12.49882,23.709939c-5.666599,0 -10.276795,-5.029322 -10.276795,-11.211089c0,-6.181737 4.610195,-11.211087 10.276795,-11.211087c5.66683,0 10.276795,5.02935 10.276795,11.211087c0,6.181766 -4.609965,11.211089 -10.276795,11.211089z"/>
  </g>
  <g stroke="null" id="svg_5">
   <path stroke="null" id="svg_6" opacity="0.3" d="m6.603719,6.217056l-0.539098,-0.58811c-1.802105,1.965708 -2.79444,4.575531 -2.79444,7.348243s0.992335,5.382535 2.79444,7.348243l0.539098,-0.588063c-1.658042,-1.808964 -2.571082,-4.209643 -2.571082,-6.76018c0,-2.550583 0.91304,-4.951215 2.571082,-6.760133z"/>
   <path stroke="null" id="svg_7" opacity="0.3" d="m19.537123,5.628946l-0.539065,0.58811c1.658,1.808918 2.57104,4.209551 2.57104,6.760133c0,2.550538 -0.91304,4.951216 -2.57104,6.76018l0.539065,0.588063c1.802094,-1.965708 2.794431,-4.575532 2.794431,-7.348243s-0.992337,-5.382535 -2.794431,-7.348243z"/>
   <path stroke="null" id="svg_8" opacity="0.3" d="m8.20085,7.958925l-0.539098,-0.588063c-1.374875,1.499869 -2.131909,3.490761 -2.131909,5.606327c0,2.115149 0.757034,4.106088 2.131909,5.606329l0.539098,-0.588063c-1.230814,-1.34313 -1.908551,-3.125245 -1.908551,-5.018266c0,-1.893436 0.677737,-3.675553 1.908551,-5.018264z"/>
   <path stroke="null" id="svg_9" opacity="0.3" d="m17.940025,7.370862l-0.539096,0.588063c1.230771,1.342711 1.908551,3.124828 1.908551,5.018264c0,1.893021 -0.67778,3.675136 -1.908551,5.018266l0.539097,0.588063c1.374876,-1.500241 2.13191,-3.49118 2.13191,-5.606329c0,-2.115566 -0.757034,-4.106458 -2.13191,-5.606327z"/>
   <path stroke="null" id="svg_10" opacity="0.3" d="m9.258884,9.113193c-0.947689,1.033614 -1.469462,2.405577 -1.469462,3.863996c0,1.458466 0.521773,2.830382 1.469462,3.863996l0.539056,-0.588108c-0.803542,-0.87641 -1.246063,-2.039968 -1.246063,-3.275889c0,-1.235875 0.442521,-2.399477 1.246063,-3.275888l-0.539056,-0.588109z"/>
   <path stroke="null" id="svg_11" opacity="0.3" d="m16.342859,9.113193l-0.539063,0.588109c0.803585,0.876411 1.246063,2.040012 1.246063,3.275888c0,1.23592 -0.442478,2.399478 -1.246063,3.275889l0.539063,0.588108c0.947681,-1.033614 1.469455,-2.40553 1.469455,-3.863996c0,-1.458419 -0.521774,-2.830382 -1.469455,-3.863996z"/>
   <circle stroke="null" id="svg_12" r="2.370525" opacity="0.3" cy="12.977165" cx="12.800878"/>
  </g>
  <g stroke="null" id="svg_13">
   <path stroke="null" id="svg_14" fill="#FFFFFF" d="m6.905933,6.437594l-0.515529,-0.562398c-1.72332,1.879771 -2.672272,4.375497 -2.672272,7.02699s0.948952,5.147219 2.672272,7.02699l0.515529,-0.562354c-1.585555,-1.729879 -2.458679,-4.025604 -2.458679,-6.464636c0,-2.439075 0.873123,-4.734756 2.458679,-6.464592z"/>
   <path stroke="null" id="svg_15" fill="#FFFFFF" d="m19.27391,5.875195l-0.515498,0.562398c1.585515,1.729836 2.458638,4.025516 2.458638,6.464592c0,2.439032 -0.873123,4.734757 -2.458638,6.464636l0.515498,0.562354c1.723309,-1.879771 2.672263,-4.375497 2.672263,-7.02699s-0.948953,-5.147219 -2.672263,-7.02699z"/>
   <path stroke="null" id="svg_16" fill="#FFFFFF" d="m8.43324,8.103311l-0.515529,-0.562354c-1.314768,1.434297 -2.038705,3.338151 -2.038705,5.361228c0,2.022678 0.723937,3.926577 2.038705,5.361229l0.515529,-0.562354c-1.177005,-1.28441 -1.825112,-2.988615 -1.825112,-4.798876c0,-1.810658 0.648107,-3.514864 1.825112,-4.798874z"/>
   <path stroke="null" id="svg_17" fill="#FFFFFF" d="m17.746634,7.540957l-0.515528,0.562354c1.176963,1.28401 1.825112,2.988216 1.825112,4.798874c0,1.810261 -0.648149,3.514466 -1.825112,4.798876l0.515528,0.562354c1.314769,-1.434653 2.038706,-3.338551 2.038706,-5.361229c0,-2.023077 -0.723937,-3.92693 -2.038707,-5.361228z"/>
   <path stroke="null" id="svg_18" fill="#FFFFFF" d="m9.445018,9.207116c-0.906258,0.988426 -1.405219,2.300409 -1.405219,3.695069c0,1.394704 0.498961,2.706642 1.405219,3.695069l0.515489,-0.562397c-0.768413,-0.838095 -1.191588,-1.950784 -1.191588,-3.132672c0,-1.181845 0.423175,-2.294575 1.191588,-3.132671l-0.515489,-0.562398z"/>
   <path stroke="null" id="svg_19" fill="#FFFFFF" d="m16.219294,9.207116l-0.515496,0.562398c0.768453,0.838096 1.191587,1.950826 1.191587,3.132671c0,1.181888 -0.423134,2.294577 -1.191587,3.132672l0.515496,0.562397c0.90625,-0.988426 1.405213,-2.300364 1.405213,-3.695069c0,-1.39466 -0.498963,-2.706642 -1.405213,-3.695069z"/>
   <circle stroke="null" id="svg_20" r="2.266889" fill="#FFFFFF" cy="12.902164" cx="12.832162"/>
  </g>
 </g>
</svg>