<svg xmlns="http://www.w3.org/2000/svg" xmlns:se="http://svg-edit.googlecode.com" xmlns:xlink="http://www.w3.org/1999/xlink" xmlns:dc="http://purl.org/dc/elements/1.1/" xmlns:cc="http://creativecommons.org/ns#" xmlns:rdf="http://www.w3.org/1999/02/22-rdf-syntax-ns#" xmlns:inkscape="http://www.inkscape.org/namespaces/inkscape" width="100" height="100" style="">
                                    <title>my vector image</title>
                                    <!-- Created with Vector Paint - http://www.vectorpaint.yaks.com/ https://chrome.google.com/webstore/detail/hnbpdiengicdefcjecjbnjnoifekhgdo -->
                                    <rect id="backgroundrect" width="100%" height="100%" x="0" y="0" fill="#FFFFFF" stroke="none" class="" style="" opacity="0"/>
                                <g style="" class="currentLayer"><title>Layer 1</title><image id="svg_1" x="11" y="240" width="0" height="1" style="color: rgb(82, 94, 100);" class="" xlink:href="logo/vector_paint_icon256.png"/><image id="svg_6" x="33" y="3" width="0" height="1" style="color: rgb(82, 94, 100);" class="" xlink:href="logo/vector_paint_icon256.png"/><path fill="#ffffff" fill-opacity="1" stroke="#f1c40f" stroke-opacity="1" stroke-width="5" stroke-dasharray="none" stroke-linejoin="miter" stroke-linecap="butt" stroke-dashoffset="" fill-rule="nonzero" opacity="1" marker-start="url(#Arrow1Mstart)" marker-mid="url(#DotL)" marker-end="url(#SquareM)" d="M3.0493582806769837,49.999999221504495 C3.0493582806769837,24.319815845107936 24.060417406819624,3.5188673102267245 49.999996574896954,3.5188673102267245 C75.93957574297428,3.5188673102267245 96.95063486911693,24.319815845107936 96.95063486911693,49.999999221504495 C96.95063486911693,75.68018259790105 75.93957574297428,96.48113113278227 49.999996574896954,96.48113113278227 C24.060417406819624,96.48113113278227 3.0493582806769837,75.68018259790105 3.0493582806769837,49.999999221504495 z" id="svg_11" class=""/><path fill="#525e64" stroke="#f1c40f" stroke-width="1" stroke-dashoffset="" fill-rule="nonzero" marker-start="url(#Arrow1Mstart)" marker-mid="url(#DotL)" marker-end="url(#SquareM)" d="M42.1390578861971,76.2665603275307 L41.706097102438115,69.34669929943198 L46.80116701811957,68.14246597797046 C59.70074868560859,65.09375224971613 72.34523856572604,52.16589753775311 79.3855721740255,34.82784341815105 C80.64867219155137,31.717238452711342 81.49409276438061,28.72031266904597 81.26427686567148,28.167997262888342 C80.73712521427625,26.900947140422808 67.8918338395171,16.813576112091575 66.80554965635062,16.813576112091575 C66.36241599874322,16.813576112091575 65.29791884278157,18.66878308678008 64.44001347468085,20.936264857082236 C60.78114607066861,30.60662419752726 51.31209285284012,40.6928733303211 44.6452184716724,42.021125970765986 L41.942269736095014,42.55966699281656 L42.40700999872675,36.579218960788495 C42.88946729985086,30.370723846007635 42.75378142874043,29.067025135964283 41.62519663608637,29.067025135964283 C40.90353518909509,29.067025135964283 19.360367442254812,52.908804297573866 18.744511016255853,54.38906443430095 C18.277309879005784,55.51196032925018 21.240377047807957,59.67771116464479 31.84924738796311,72.81280491350549 C36.45747112809447,78.5182794655225 40.75526382196151,83.1864275883822 41.3999206629306,83.1864275883822 C42.431727837390284,83.1864275883822 42.52018925184442,82.35820378926584 42.13905998412959,76.26656656028379 L42.1390578861971,76.2665603275307 z" style="color: rgb(241, 196, 15);" class="" transform="rotate(173.0376434326172 50,50) " fill-opacity="1" id="svg_23"/></g></svg>