<svg xmlns="http://www.w3.org/2000/svg" xmlns:se="http://svg-edit.googlecode.com" xmlns:xlink="http://www.w3.org/1999/xlink" xmlns:dc="http://purl.org/dc/elements/1.1/" xmlns:cc="http://creativecommons.org/ns#" xmlns:rdf="http://www.w3.org/1999/02/22-rdf-syntax-ns#" xmlns:inkscape="http://www.inkscape.org/namespaces/inkscape" width="100" height="100" style="">
                                    <title>my vector image</title>
                                    <!-- Created with Vector Paint - http://www.vectorpaint.yaks.com/ https://chrome.google.com/webstore/detail/hnbpdiengicdefcjecjbnjnoifekhgdo -->
                                    <rect id="backgroundrect" width="100%" height="100%" x="0" y="0" fill="#FFFFFF" stroke="none" class="" style="" opacity="0"/>
                                <g style="" class="currentLayer"><title>Layer 1</title><image id="svg_1" x="11" y="240" width="0" height="1" style="color: rgb(82, 94, 100);" class="" xlink:href="logo/vector_paint_icon256.png"/><image id="svg_6" x="33" y="3" width="0" height="1" style="color: rgb(82, 94, 100);" class="" xlink:href="logo/vector_paint_icon256.png"/><path fill="#ffffff" fill-opacity="1" stroke="#f1c40f" stroke-opacity="1" stroke-width="5" stroke-dasharray="none" stroke-linejoin="miter" stroke-linecap="butt" stroke-dashoffset="" fill-rule="nonzero" opacity="1" marker-start="url(#Arrow1Mstart)" marker-mid="url(#DotL)" marker-end="url(#SquareM)" d="M3.0493582806769837,49.999999221504495 C3.0493582806769837,24.319815845107936 24.060417406819624,3.5188673102267245 49.999996574896954,3.5188673102267245 C75.93957574297428,3.5188673102267245 96.95063486911693,24.319815845107936 96.95063486911693,49.999999221504495 C96.95063486911693,75.68018259790105 75.93957574297428,96.48113113278227 49.999996574896954,96.48113113278227 C24.060417406819624,96.48113113278227 3.0493582806769837,75.68018259790105 3.0493582806769837,49.999999221504495 z" id="svg_11" class=""/><path fill="#525e64" stroke="#f1c40f" stroke-dashoffset="" fill-rule="nonzero" marker-start="url(#Arrow1Mstart)" marker-mid="url(#DotL)" marker-end="url(#SquareM)" id="svg_4" d="M57.26065251246849,76.32937023494709 L57.660550773309666,69.39296155312594 L52.954559666089395,68.18584851545009 C41.04003884131536,65.12984431432749 29.361130030264682,52.17107486834308 22.85842292303767,34.791559783754906 C21.691777999930046,31.673516343231874 20.910916939446736,28.669423928632494 21.123183226960123,28.115787755476145 C21.610079584552206,26.845707701254806 33.47445592867674,16.734214465545193 34.47778734325881,16.734214465545193 C34.88708163882698,16.734214465545193 35.87028976600115,18.59385784762299 36.6626822355713,20.866761909356477 C40.04214468667222,30.560246245677888 48.78810518855799,40.6706149030297 54.94587182767092,42.002043830492745 L57.44241317517058,42.54187268047979 L57.01316223665453,36.547123438826596 C56.567547199711356,30.323781779168563 56.692871584536,29.016965498595543 57.7352733740826,29.016965498595543 C58.40182602363786,29.016965498595543 78.29987600445472,52.91575816150112 78.86870330457813,54.39955808494712 C79.30022719601956,55.525139191689384 76.5634310426317,59.700851701464046 66.76469416470098,72.86735576074713 C62.50837181779944,78.58647397075484 58.53877482841031,83.26578516442548 57.943346421928176,83.26578516442548 C56.99033194563443,83.26578516442548 56.908625779351645,82.43558081099242 57.26065057474222,76.32937648260467 L57.26065251246849,76.32937023494709 z" style="color: rgb(82, 94, 100);" class="" transform="rotate(-172.39988708496094 50.00000000000001,50.00000000000001) "/></g></svg>