<svg width="18.999999999999996" height="28.7" xmlns="http://www.w3.org/2000/svg">
 <g>
  <title>background</title>
  <rect fill="none" id="canvas_background" height="30.7" width="21" y="-1" x="-1"/>
 </g>

 <g>
  <title>Layer 1</title>
  <g stroke="null" id="svg_1">
   <path stroke="null" id="svg_2" fill="#219b00" d="m9.460273,0.07042c-5.232567,0 -9.474353,4.241786 -9.474353,9.474353c0,1.682882 0.451927,3.256809 1.221244,4.625853c0.127785,0.227384 0.261729,0.451216 0.40716,0.666758l7.845948,13.656095l7.845948,-13.656095c0.120798,-0.178828 0.225016,-0.368315 0.332787,-0.555434l0.074611,-0.111324c0.768607,-1.369044 1.221007,-2.942971 1.221007,-4.625853c0,-5.232567 -4.242141,-9.474353 -9.474353,-9.474353zm0,4.737176c2.616106,0 4.737176,2.120952 4.737176,4.737176c0,2.616106 -2.121071,4.737176 -4.737176,4.737176c-2.616224,0 -4.737176,-2.121071 -4.737176,-4.737176c0,-2.616224 2.120952,-4.737176 4.737176,-4.737176z"/>
   <path stroke="null" id="svg_3" fill="#219b00" d="m9.460273,3.623302c-3.27031,0 -5.921471,2.651161 -5.921471,5.921471c0,3.269836 2.651161,5.921471 5.921471,5.921471c3.269836,0 5.921471,-2.651635 5.921471,-5.921471c0,-3.27031 -2.651635,-5.921471 -5.921471,-5.921471zm0,2.368588c1.962375,0 3.552882,1.590625 3.552882,3.552882s-1.590507,3.552882 -3.552882,3.552882s-3.552882,-1.590625 -3.552882,-3.552882s1.590507,-3.552882 3.552882,-3.552882z"/>
  </g>
  <ellipse stroke="#000" ry="7.328214" rx="7.473808" id="svg_4" cy="9.294896" cx="9.5" stroke-width="0" fill="#ffffff"/>
  <ellipse id="svg_7" cy="8.722051" cx="10.077464" stroke-opacity="null" stroke-width="0" stroke="#000" fill="#ffffff"/>
  <ellipse id="svg_8" cy="9.144587" cx="8.176056" stroke-opacity="null" stroke-width="0" stroke="#000" fill="#ffffff"/>
 </g>
</svg>