<svg version="1.1" id="Layer_1" xmlns="http://www.w3.org/2000/svg" xmlns:xlink="http://www.w3.org/1999/xlink" x="0px" y="0px"
	 width="100%" viewBox="0 0 600 543" enable-background="new 0 0 600 543" xml:space="preserve">
<path fill="#FFFFFF" opacity="1.000000" stroke="none" 
	d="
M0.999999,410.000000 
	C1.000000,273.732758 1.000000,137.465530 1.000000,1.000000 
	C158.690689,1.000000 316.381470,1.000000 474.377197,1.322938 
	C470.129547,4.685944 465.576996,7.726012 460.674927,10.869268 
	C453.238770,16.792757 446.103546,22.555159 439.077484,28.447752 
	C429.886871,36.155670 420.822479,44.014095 411.631104,51.721081 
	C400.068207,61.416569 388.401215,70.987877 376.836945,80.681725 
	C367.771515,88.280914 358.838806,96.038551 349.766022,103.628876 
	C338.319641,113.205002 326.748840,122.632545 315.310760,132.218552 
	C306.117310,139.923416 297.086609,147.822403 287.902283,155.538300 
	C276.094849,165.457870 264.191895,175.263672 252.357529,185.151337 
	C245.297791,191.049805 238.314804,197.040146 231.253799,202.937088 
	C222.065781,210.610382 212.836044,218.233734 203.621521,225.875259 
	C194.282181,233.620331 184.862793,241.271179 175.621445,249.131393 
	C167.617859,255.938812 159.814545,262.981689 151.574326,269.961731 
	C137.880051,281.105408 124.542969,292.218475 111.185394,303.306824 
	C100.850876,311.885712 90.490677,320.433716 79.980049,328.673889 
	C78.189751,325.152130 76.772133,321.816956 74.845764,318.807373 
	C73.851166,317.253510 71.952766,316.278107 70.462723,315.041351 
	C68.975822,316.949219 66.539772,318.695343 66.181786,320.795624 
	C65.149689,326.851074 68.198715,331.779022 71.888687,336.500153 
	C63.777668,343.401062 55.684990,349.844666 47.918201,356.659668 
	C38.801331,364.659271 29.967630,372.981628 20.661388,381.113770 
	C18.539322,382.713623 16.303577,384.077454 15.076239,386.064209 
	C10.212798,393.936951 5.664873,402.004608 0.999999,410.000000 
z"/>
<path fill="#FFFFFF" opacity="1.000000" stroke="none" 
	d="
M601.000000,146.000000 
	C601.000000,278.602051 601.000000,411.204102 601.000000,544.000000 
	C440.975983,544.000000 280.951874,544.000000 120.634476,543.670288 
	C127.693184,540.176331 135.087585,537.104492 142.361191,533.769226 
	C143.805161,533.107056 144.785828,531.434448 146.298508,530.052185 
	C156.493179,522.336731 166.477417,514.933105 176.211792,507.214325 
	C184.044571,501.003387 191.575119,494.411285 199.503906,488.192444 
	C204.330627,491.252319 208.704681,494.536224 213.579498,496.682922 
	C214.910370,497.268982 218.021683,494.704407 219.691971,492.980988 
	C220.094269,492.565918 218.360916,489.359894 216.996338,488.103668 
	C214.160629,485.493134 210.914169,483.328766 207.993835,480.671967 
	C221.076599,469.440521 233.994049,458.508667 246.930405,447.599182 
	C255.344116,440.503662 263.761383,433.412048 272.220062,426.370300 
	C283.696686,416.816101 295.255798,407.360687 306.701416,397.769714 
	C315.900940,390.060944 324.937531,382.157806 334.131073,374.441772 
	C345.823334,364.628571 357.594238,354.908966 369.344452,345.164917 
	C376.794739,338.986664 384.297211,332.871124 391.725250,326.666382 
	C400.427246,319.397522 409.099487,312.092560 417.737518,304.747864 
	C427.260956,296.650330 436.675903,288.424469 446.238159,280.373352 
	C457.914948,270.541809 469.719543,260.862152 481.424255,251.063538 
	C490.499817,243.465973 499.475891,235.749527 508.552887,228.153748 
	C517.863220,220.362717 527.246155,212.658417 536.590698,204.908279 
	C545.811035,197.261154 555.092468,189.685562 564.218079,181.926971 
	C572.224915,175.119522 580.053101,168.101929 588.307007,161.098602 
	C594.603638,157.521194 597.811707,151.768707 601.000000,146.000000 
z"/>
<path fill="#FFFFFF" opacity="1.000000" stroke="none" 
	d="
M488.000000,1.000000 
	C525.599304,1.000000 563.198547,1.000000 601.000000,1.000000 
	C601.000000,44.687355 601.000000,88.375015 600.676270,132.371277 
	C599.666321,131.013107 599.123779,129.268829 598.272278,127.691292 
	C587.098938,106.989456 571.802612,89.300453 556.825195,71.406990 
	C547.714111,60.522003 538.146606,50.020046 528.838745,39.298584 
	C516.537292,25.128868 504.658905,10.518822 488.000000,1.000000 
z"/>
<path fill="#FFFFFF" opacity="1.000000" stroke="none" 
	d="
M105.000000,544.000000 
	C70.400864,544.000000 35.801720,544.000000 1.000000,544.000000 
	C1.000000,503.979340 1.000000,463.958313 1.320934,423.625427 
	C1.796755,423.954315 1.825554,424.661987 2.124762,425.226257 
	C12.366673,444.541443 23.672398,463.190674 38.188881,479.634094 
	C51.298660,494.484100 64.311569,509.479187 78.327873,523.446167 
	C86.214493,531.305054 96.045135,537.213135 105.000000,544.000000 
z"/>
<path fill="#8C8F95" opacity="1.000000" stroke="none" 
	d="
M105.466118,544.000000 
	C96.045135,537.213135 86.214493,531.305054 78.327873,523.446167 
	C64.311569,509.479187 51.298660,494.484100 38.188881,479.634094 
	C23.672398,463.190674 12.366673,444.541443 2.124762,425.226257 
	C1.825554,424.661987 1.796755,423.954315 1.320934,423.156738 
	C1.000000,418.975464 1.000000,414.950897 0.999999,410.463196 
	C5.664873,402.004608 10.212798,393.936951 15.076239,386.064209 
	C16.303577,384.077454 18.539322,382.713623 20.496626,381.486206 
	C20.475365,385.092529 20.269140,388.276184 19.859879,391.696716 
	C14.780152,395.964783 13.363149,401.585419 13.048777,407.451813 
	C12.383847,419.859772 17.392738,430.311462 24.892029,440.172028 
	C25.939644,443.035706 26.998379,445.514343 28.079788,448.347961 
	C34.257465,460.516815 41.173290,471.799988 50.874763,481.507507 
	C51.870186,482.641876 52.765381,483.478912 53.787495,484.524902 
	C54.112747,485.003357 54.362354,485.211212 54.707653,485.635437 
	C55.096542,486.343567 55.441021,486.773773 55.896393,487.521423 
	C59.186268,491.028290 62.365257,494.217682 65.681969,497.705017 
	C68.812447,500.741852 71.805191,503.480774 74.972397,506.441833 
	C75.638016,506.929596 76.129166,507.195190 76.753876,507.756531 
	C78.595490,509.347321 80.303558,510.642456 82.280075,512.142151 
	C84.690880,513.640381 86.833244,514.934021 89.177002,516.471436 
	C93.918922,520.570740 98.005287,525.226807 103.095009,528.114197 
	C113.528854,534.033325 124.568626,537.398926 136.299774,529.710510 
	C139.811646,529.909424 142.895889,530.068665 145.980133,530.227905 
	C144.785828,531.434448 143.805161,533.107056 142.361191,533.769226 
	C135.087585,537.104492 127.693184,540.176331 120.170593,543.670288 
	C115.310745,544.000000 110.621490,544.000000 105.466118,544.000000 
z"/>
<path fill="#8B8F95" opacity="1.000000" stroke="none" 
	d="
M487.536804,1.000000 
	C504.658905,10.518822 516.537292,25.128868 528.838745,39.298584 
	C538.146606,50.020046 547.714111,60.522003 556.825195,71.406990 
	C571.802612,89.300453 587.098938,106.989456 598.272278,127.691292 
	C599.123779,129.268829 599.666321,131.013107 600.676270,132.839935 
	C601.000000,137.024551 601.000000,141.049088 601.000000,145.536819 
	C597.811707,151.768707 594.603638,157.521194 588.008789,160.935593 
	C582.844666,156.267014 578.325623,151.682877 573.574890,146.863602 
	C579.410950,142.430313 584.622864,138.310120 590.014099,134.439789 
	C592.969238,132.318314 593.805725,130.321030 591.571472,127.049690 
	C585.565918,118.256882 580.448059,108.774353 573.783875,100.530861 
	C555.690857,78.149994 537.274719,56.011780 518.372131,34.312744 
	C510.566437,25.352297 501.191101,17.759218 492.357117,9.380594 
	C485.603546,15.488754 479.514160,20.996202 473.157806,26.745104 
	C468.827271,21.042040 464.925842,15.904060 461.024414,10.766081 
	C465.576996,7.726012 470.129547,4.685944 474.841064,1.322938 
	C479.024536,1.000000 483.049103,1.000000 487.536804,1.000000 
z"/>
<path fill="#2B7FFE" opacity="1.000000" stroke="none" 
	d="
M460.674927,10.869269 
	C464.925842,15.904060 468.827271,21.042040 473.157806,26.745104 
	C479.514160,20.996202 485.603546,15.488754 492.357117,9.380594 
	C501.191101,17.759218 510.566437,25.352297 518.372131,34.312744 
	C537.274719,56.011780 555.690857,78.149994 573.783875,100.530861 
	C580.448059,108.774353 585.565918,118.256882 591.571472,127.049690 
	C593.805725,130.321030 592.969238,132.318314 590.014099,134.439789 
	C584.622864,138.310120 579.410950,142.430313 573.574890,146.863602 
	C578.325623,151.682877 582.844666,156.267014 587.661865,161.014160 
	C580.053101,168.101929 572.224915,175.119522 564.218079,181.926971 
	C555.092468,189.685562 545.811035,197.261154 536.590698,204.908279 
	C527.246155,212.658417 517.863220,220.362717 508.552887,228.153748 
	C499.475891,235.749527 490.499817,243.465973 481.424255,251.063538 
	C469.719543,260.862152 457.914948,270.541809 446.238159,280.373352 
	C436.675903,288.424469 427.260956,296.650330 417.737518,304.747864 
	C409.099487,312.092560 400.427246,319.397522 391.725250,326.666382 
	C384.297211,332.871124 376.794739,338.986664 369.344452,345.164917 
	C357.594238,354.908966 345.823334,364.628571 334.131073,374.441772 
	C324.937531,382.157806 315.900940,390.060944 306.701416,397.769714 
	C295.255798,407.360687 283.696686,416.816101 272.220062,426.370300 
	C263.761383,433.412048 255.344116,440.503662 246.930405,447.599182 
	C233.994049,458.508667 221.076599,469.440521 207.618713,480.648560 
	C205.072571,480.212372 203.058853,479.490540 201.399445,478.859924 
	C203.363327,478.169922 205.246704,477.698059 206.537048,476.556122 
	C213.756454,470.167023 220.832550,463.616058 228.256989,456.977692 
	C229.773880,455.571014 230.991364,454.307068 232.488937,452.876190 
	C242.806747,443.365509 252.858078,434.036285 262.874725,424.669983 
	C266.286530,421.479706 269.610992,418.196014 273.062378,415.333496 
	C272.616821,417.600922 272.084259,419.489838 271.551697,421.378723 
	C273.553864,420.767181 275.604004,420.273865 277.536407,419.490295 
	C278.399689,419.140259 279.288147,418.335449 279.694397,417.506378 
	C280.197968,416.478607 280.213226,415.211578 280.439423,414.047913 
	C279.280609,413.936005 278.092041,413.610596 276.970551,413.766785 
	C275.602570,413.957245 274.290894,414.552368 273.021332,414.601746 
	C276.299652,409.902588 275.413879,405.943665 271.523956,401.422058 
	C255.806839,412.645508 241.328690,425.142822 227.630905,439.072327 
	C225.886780,440.840240 224.430801,442.459045 222.712509,444.270721 
	C214.961349,453.173859 207.479706,461.890350 199.979111,470.590485 
	C197.786240,473.134094 197.570786,475.571777 199.780991,477.925110 
	C197.285461,478.887482 195.207504,479.873138 193.129532,480.858795 
	C194.304932,482.500916 195.409164,484.201141 196.683884,485.762177 
	C197.388245,486.624725 198.378433,487.253906 199.239777,487.988281 
	C191.575119,494.411285 184.044571,501.003387 176.211792,507.214325 
	C166.477417,514.933105 156.493179,522.336731 146.298508,530.052246 
	C142.895889,530.068665 139.811646,529.909424 136.400726,529.348267 
	C138.564117,521.763062 134.841278,513.890747 126.816994,512.291748 
	C119.999748,510.933350 112.709221,510.924316 105.753952,511.604736 
	C100.064865,512.161316 94.561378,514.615051 88.975609,516.227722 
	C86.833244,514.934021 84.690880,513.640381 82.300415,511.795593 
	C82.065125,511.013214 82.077942,510.781891 82.427719,510.668457 
	C84.395302,510.961090 86.025902,511.135803 87.804970,511.326447 
	C77.607559,501.372040 67.858025,491.854858 57.901337,482.200195 
	C55.981918,479.976990 54.269642,477.891235 52.338402,475.471985 
	C44.700142,464.090393 37.280849,453.042358 29.861557,441.994293 
	C29.552477,442.082733 29.243399,442.171143 28.934319,442.259583 
	C29.020493,444.162903 29.106668,446.066223 28.908915,447.975647 
	C28.435696,447.985474 28.246403,447.989197 28.057112,447.992950 
	C26.998379,445.514343 25.939644,443.035706 25.236469,440.133484 
	C31.940216,429.138153 35.597832,417.750641 35.815979,405.369080 
	C35.950859,397.713623 28.009758,388.009277 20.062916,391.459808 
	C20.269140,388.276184 20.475365,385.092529 20.846350,381.536438 
	C29.967630,372.981628 38.801331,364.659271 47.918201,356.659668 
	C55.684990,349.844666 63.777668,343.401062 72.181381,336.662079 
	C74.336296,338.747009 76.035995,340.962982 77.735703,343.178986 
	C79.208275,341.279358 80.680855,339.379730 82.422035,337.720551 
	C84.267410,338.374664 86.348854,339.651276 87.343491,339.069580 
	C98.249519,332.691467 108.986000,326.023468 120.077545,319.432190 
	C121.660065,318.616364 122.933563,317.802551 124.525993,316.898041 
	C130.341949,312.768921 136.023941,308.956360 141.294113,304.640900 
	C149.919113,297.578278 158.267944,290.178802 166.750824,282.942017 
	C169.673233,280.448883 169.371536,278.719147 166.151443,276.447296 
	C161.655182,273.275116 158.278275,276.427063 154.350372,277.449524 
	C154.206772,277.265961 153.919067,276.899292 154.075821,276.604858 
	C154.587921,275.969208 155.013733,275.676422 155.286667,275.278687 
	C156.608658,273.352295 159.435379,270.523621 158.916077,269.605286 
	C156.731461,265.742126 154.798904,270.861084 152.311340,270.324982 
	C152.181854,270.190094 151.922714,269.920502 151.922714,269.920502 
	C159.814545,262.981689 167.617859,255.938812 175.621445,249.131393 
	C184.862793,241.271179 194.282181,233.620331 203.621521,225.875259 
	C212.836044,218.233734 222.065781,210.610382 231.253799,202.937088 
	C238.314804,197.040146 245.297791,191.049805 252.357529,185.151337 
	C264.191895,175.263672 276.094849,165.457870 287.902283,155.538300 
	C297.086609,147.822403 306.117310,139.923416 315.310760,132.218552 
	C326.748840,122.632545 338.319641,113.205002 349.766022,103.628876 
	C358.838806,96.038551 367.771515,88.280914 376.836945,80.681725 
	C388.401215,70.987877 400.068207,61.416569 411.631104,51.721081 
	C420.822479,44.014095 429.886871,36.155670 439.077484,28.447752 
	C446.103546,22.555159 453.238770,16.792757 460.674927,10.869269 
M206.863770,255.020691 
	C207.250931,254.623276 207.638092,254.225845 208.624176,253.577911 
	C219.443069,244.419296 230.261963,235.260681 241.669449,225.994690 
	C242.155319,225.434311 242.641190,224.873947 243.754623,224.033676 
	C254.186935,215.289703 264.619232,206.545731 275.560364,197.654922 
	C276.017456,197.131699 276.474518,196.608475 277.530396,195.761292 
	C288.420654,186.520370 299.310913,177.279434 310.684570,167.852859 
	C311.166077,167.364807 311.647614,166.876770 312.763824,166.105103 
	C323.244385,157.315887 333.724976,148.526672 344.696167,139.550949 
	C345.449310,138.797684 346.202454,138.044418 347.557800,136.937881 
	C358.129547,127.986671 368.701324,119.035461 379.808258,109.964523 
	C380.444885,109.370590 381.081512,108.776665 382.333313,107.831352 
	C385.908813,104.843712 389.491150,101.864212 393.058655,98.867050 
	C411.149719,83.668282 429.287323,68.524277 447.293182,53.225185 
	C452.372284,48.909565 452.938202,43.907616 449.433716,39.699326 
	C445.863068,35.411625 440.606720,34.952423 435.727081,39.036163 
	C413.654419,57.508610 391.684906,76.104294 369.111694,94.840477 
	C368.700989,95.244560 368.290283,95.648636 367.309265,96.365669 
	C356.493927,105.512611 345.678589,114.659561 334.284698,123.934700 
	C333.805023,124.483551 333.325378,125.032402 332.229370,125.899284 
	C321.672943,134.818619 311.116516,143.737961 300.019775,152.834381 
	C299.619324,153.219925 299.218903,153.605484 298.252625,154.314423 
	C287.192078,163.700836 276.131531,173.087250 264.622437,182.628006 
	C264.121521,183.054993 263.620605,183.481964 262.532349,184.261612 
	C252.030212,193.114471 241.528076,201.967331 230.473221,211.006790 
	C230.224243,211.298264 229.975250,211.589737 229.191467,212.255249 
	C218.431625,221.278137 207.671799,230.301025 196.297745,239.299835 
	C195.802719,239.880127 195.307693,240.460434 194.297913,241.427643 
	C189.851044,245.196152 185.289520,248.839264 180.990997,252.769989 
	C177.056305,256.368011 176.623520,262.127014 179.656342,265.839844 
	C182.794800,269.682007 188.227768,270.270844 192.637405,266.815491 
	C197.345978,263.125854 201.764343,259.065887 206.863770,255.020691 
M313.821594,382.081238 
	C314.203644,381.702087 314.585663,381.322906 315.568359,380.658173 
	C326.412048,371.496368 337.255707,362.334564 348.606476,352.972015 
	C348.845642,352.705200 349.084778,352.438354 349.862671,351.801086 
	C360.555511,342.815521 371.248352,333.829956 382.470093,324.726257 
	C382.938599,324.208313 383.407074,323.690338 384.476715,322.825409 
	C395.379639,313.563873 406.282532,304.302338 417.663727,294.870697 
	C418.143555,294.416687 418.623352,293.962708 419.725403,293.175781 
	C430.433990,284.121460 441.142578,275.067139 452.375244,265.864105 
	C452.592804,265.585846 452.810394,265.307587 453.639893,264.757080 
	C464.495422,255.549164 475.350952,246.341232 486.753418,236.998566 
	C487.410339,236.402756 488.067230,235.806931 489.339752,234.856461 
	C492.911499,231.869644 496.486908,228.887207 500.054352,225.895279 
	C517.381042,211.363754 534.725830,196.853714 552.019287,182.282776 
	C557.649414,177.539047 558.767029,171.963852 555.179443,167.615784 
	C551.387024,163.019531 546.187073,163.185516 540.305359,168.087479 
	C537.495422,170.429321 534.667297,172.749496 531.872437,175.109146 
	C513.454041,190.659515 495.042419,206.217941 476.068817,221.885712 
	C475.404694,222.516922 474.740570,223.148117 473.479126,224.132660 
	C462.946808,233.037811 452.414490,241.942963 441.286957,250.969131 
	C440.793884,251.538788 440.300812,252.108429 439.182983,252.954788 
	C428.617706,261.888214 418.052399,270.821655 406.954071,279.885773 
	C406.310669,280.505249 405.667236,281.124695 404.426117,282.095490 
	C393.524139,291.301270 382.622192,300.507050 371.178650,309.875275 
	C370.800110,310.256378 370.421539,310.637482 369.459229,311.343964 
	C358.976898,320.203766 348.494598,329.063568 337.401245,338.002716 
	C336.918030,338.579163 336.434784,339.155579 335.350128,340.067017 
	C324.801819,348.994720 314.253510,357.922424 303.065369,366.848694 
	C302.419403,367.514008 301.773438,368.179321 300.532074,369.196991 
	C296.349274,372.703339 292.051666,376.083313 288.014191,379.749756 
	C283.510101,383.840027 283.027313,388.886292 286.411255,392.960236 
	C289.692291,396.910400 295.054413,397.443298 299.709381,393.821472 
	C304.397736,390.173615 308.775543,386.126648 313.821594,382.081238 
M552.768372,123.713196 
	C532.167114,94.122223 508.125031,67.462227 482.893494,41.825497 
	C481.305573,40.212097 479.283722,38.907036 477.252808,37.872765 
	C472.838257,35.624596 470.191986,39.115269 468.144379,41.823055 
	C467.322235,42.910290 468.903290,46.044952 469.768127,48.087887 
	C470.255188,49.238518 471.505859,50.068783 472.421844,51.034538 
	C496.588531,76.514503 519.915894,102.710403 540.741089,131.044449 
	C544.581665,136.269836 548.338867,141.568375 552.442627,146.580994 
	C553.608887,148.005569 556.214783,149.693954 557.556396,149.284058 
	C563.517212,147.462952 565.307312,141.907028 561.861755,136.483185 
	C559.191162,132.279358 556.065674,128.364532 552.768372,123.713196 
M61.383595,370.392761 
	C65.622284,380.095795 69.226570,390.140717 74.232521,399.430298 
	C84.462700,418.414551 97.564034,435.459137 112.144104,451.315063 
	C125.151596,465.460815 139.744522,477.826477 155.620544,488.659515 
	C162.667099,493.467773 169.917847,493.962341 176.943466,488.812500 
	C180.681442,486.072571 184.401901,483.102966 187.418152,479.620270 
	C199.615784,465.536560 211.549179,451.223694 223.530075,436.953369 
	C224.291443,436.046600 224.628143,434.783264 225.162384,433.685791 
	C224.531616,433.192139 223.900864,432.698517 223.270111,432.204865 
	C221.790314,434.774750 220.310516,437.344635 218.176422,441.050812 
	C199.523102,421.289581 181.387146,403.778168 165.313751,384.543213 
	C150.845352,367.228912 138.628281,348.032074 125.451454,329.641785 
	C124.192474,327.884674 122.971664,326.283813 125.589493,324.187561 
	C142.207596,310.880524 158.710922,297.429749 175.192398,283.953369 
	C176.464264,282.913391 177.277954,281.313110 178.304611,279.973236 
	C177.889633,279.619049 177.474655,279.264893 177.059677,278.910736 
	C168.763062,285.752716 160.654114,292.839264 152.127899,299.382080 
	C137.631317,310.506470 123.160194,321.707336 108.116074,332.058838 
	C98.968193,338.353271 88.574478,342.805359 79.095200,348.659546 
	C71.028015,353.641693 63.002476,359.052917 61.383595,370.392761 
M98.699547,452.440247 
	C96.076988,454.896454 93.454437,457.352661 90.588364,460.036926 
	C99.572937,469.069733 108.083229,477.642242 116.612915,486.195404 
	C122.495689,492.094391 122.471016,492.032501 129.238556,487.067871 
	C131.258911,485.585724 131.915329,484.325897 129.890167,482.346497 
	C119.694099,472.380707 109.540741,462.371216 98.699547,452.440247 
z"/>
<path fill="#2B7FFE" opacity="1.000000" stroke="none" 
	d="
M80.141891,328.995422 
	C90.490677,320.433716 100.850876,311.885712 111.185394,303.306824 
	C124.542969,292.218475 137.880051,281.105408 151.574326,269.961731 
	C151.922714,269.920502 152.181854,270.190094 152.176544,270.613586 
	C151.301254,272.637268 150.431259,274.237396 149.561264,275.837555 
	C151.013870,276.191467 152.466461,276.545380 153.919067,276.899292 
	C153.919067,276.899292 154.206772,277.265961 154.097626,277.659302 
	C139.977875,288.614929 125.967278,299.177185 111.637558,309.850342 
	C110.131683,310.969910 108.944931,311.978607 107.464455,313.132568 
	C98.733994,320.139954 90.297241,327.002045 81.568741,333.697510 
	C80.898628,332.019073 80.520264,330.507263 80.141891,328.995422 
z"/>
<path fill="#8B8F96" opacity="1.000000" stroke="none" 
	d="
M79.980049,328.673889 
	C80.520264,330.507263 80.898628,332.019073 81.577675,334.066650 
	C81.970039,335.561615 82.061729,336.520874 82.153427,337.480103 
	C80.680855,339.379730 79.208275,341.279358 77.735703,343.178986 
	C76.035995,340.962982 74.336296,338.747009 72.343903,336.369080 
	C68.198715,331.779022 65.149689,326.851074 66.181786,320.795624 
	C66.539772,318.695343 68.975822,316.949219 70.462723,315.041351 
	C71.952766,316.278107 73.851166,317.253510 74.845764,318.807373 
	C76.772133,321.816956 78.189751,325.152130 79.980049,328.673889 
z"/>
<path fill="#8B8F95" opacity="1.000000" stroke="none" 
	d="
M199.503906,488.192444 
	C198.378433,487.253906 197.388245,486.624725 196.683884,485.762177 
	C195.409164,484.201141 194.304932,482.500916 193.129532,480.858795 
	C195.207504,479.873138 197.285461,478.887482 199.969452,478.006073 
	C200.811966,478.272766 200.968506,478.492218 201.045135,478.768707 
	C203.058853,479.490540 205.072571,480.212372 207.461411,480.957642 
	C210.914169,483.328766 214.160629,485.493134 216.996338,488.103668 
	C218.360916,489.359894 220.094269,492.565918 219.691971,492.980988 
	C218.021683,494.704407 214.910370,497.268982 213.579498,496.682922 
	C208.704681,494.536224 204.330627,491.252319 199.503906,488.192444 
z"/>
<path fill="#E6E6E8" opacity="1.000000" stroke="none" 
	d="
M89.177002,516.471436 
	C94.561378,514.615051 100.064865,512.161316 105.753952,511.604736 
	C112.709221,510.924316 119.999748,510.933350 126.816994,512.291748 
	C134.841278,513.890747 138.564117,521.763062 135.973083,529.308533 
	C124.568626,537.398926 113.528854,534.033325 103.095009,528.114197 
	C98.005287,525.226807 93.918922,520.570740 89.177002,516.471436 
z"/>
<path fill="#E7E7E8" opacity="1.000000" stroke="none" 
	d="
M19.859877,391.696716 
	C28.009758,388.009277 35.950859,397.713623 35.815979,405.369080 
	C35.597832,417.750641 31.940216,429.138153 25.247589,439.748413 
	C17.392738,430.311462 12.383847,419.859772 13.048777,407.451813 
	C13.363149,401.585419 14.780152,395.964783 19.859877,391.696716 
z"/>
<path fill="#337BE8" opacity="1.000000" stroke="none" 
	d="
M28.079788,448.347961 
	C28.246403,447.989197 28.435696,447.985474 29.164650,448.183655 
	C36.438679,458.034302 43.173042,467.682983 50.000469,477.602295 
	C50.638824,478.678070 51.184116,479.483185 51.491249,480.519348 
	C51.093571,480.903687 50.934055,481.056946 50.774540,481.210205 
	C41.173290,471.799988 34.257465,460.516815 28.079788,448.347961 
z"/>
<path fill="#337BE8" opacity="1.000000" stroke="none" 
	d="
M65.544235,497.407074 
	C62.365257,494.217682 59.186268,491.028290 56.134720,487.285278 
	C56.420540,486.573639 56.578915,486.415680 56.971958,486.485077 
	C60.242874,490.035583 63.279118,493.358765 66.122971,496.863647 
	C65.801804,497.165894 65.673019,497.286469 65.544235,497.407074 
z"/>
<path fill="#337BE8" opacity="1.000000" stroke="none" 
	d="
M74.797928,506.219696 
	C71.805191,503.480774 68.812447,500.741852 65.681961,497.705017 
	C65.673019,497.286469 65.801804,497.165894 66.418808,497.010101 
	C69.850754,499.729431 72.794479,502.483978 75.502777,505.483490 
	C75.110878,505.892212 74.954399,506.055969 74.797928,506.219696 
z"/>
<path fill="#337BE8" opacity="1.000000" stroke="none" 
	d="
M82.090752,510.550568 
	C82.077942,510.781891 82.065125,511.013214 82.031967,511.591064 
	C80.303558,510.642456 78.595490,509.347321 76.913300,507.565308 
	C76.939178,507.078369 77.258896,506.696625 77.547310,506.827271 
	C79.254066,508.155457 80.672409,509.352997 82.090752,510.550568 
z"/>
<path fill="#337BE8" opacity="1.000000" stroke="none" 
	d="
M53.660576,484.315948 
	C52.765381,483.478912 51.870186,482.641876 50.874763,481.507507 
	C50.934055,481.056946 51.093571,480.903687 51.703976,480.755249 
	C52.803867,481.810394 53.452877,482.860657 53.991867,484.012512 
	C53.881851,484.114105 53.660576,484.315948 53.660576,484.315948 
z"/>
<path fill="#337BE8" opacity="1.000000" stroke="none" 
	d="
M56.023834,486.967773 
	C55.441021,486.773773 55.096542,486.343567 54.815247,485.519623 
	C54.878429,485.125854 55.094135,484.894684 55.354736,484.934998 
	C55.787121,485.012909 55.958897,485.050507 56.182808,485.305237 
	C56.372299,485.788116 56.539749,486.033203 56.737286,486.257751 
	C56.578915,486.415680 56.420540,486.573639 56.023834,486.967773 
z"/>
<path fill="#337BE8" opacity="1.000000" stroke="none" 
	d="
M76.779755,507.269592 
	C76.129166,507.195190 75.638016,506.929596 74.972397,506.441833 
	C74.954399,506.055969 75.110878,505.892212 75.704636,505.654785 
	C76.514244,505.952911 76.886574,506.324768 77.258896,506.696625 
	C77.258896,506.696625 76.939178,507.078369 76.779755,507.269592 
z"/>
<path fill="#337BE8" opacity="1.000000" stroke="none" 
	d="
M54.770836,485.241699 
	C54.362354,485.211212 54.112747,485.003357 53.787495,484.524902 
	C53.660576,484.315948 53.881851,484.114105 54.221088,484.102417 
	C54.848358,484.285645 55.026295,484.553619 55.094135,484.894684 
	C55.094135,484.894684 54.878429,485.125854 54.770836,485.241699 
z"/>
<path fill="#CDCECE" opacity="1.000000" stroke="none" 
	d="
M552.955383,124.017220 
	C556.065674,128.364532 559.191162,132.279358 561.861755,136.483185 
	C565.307312,141.907028 563.517212,147.462952 557.556396,149.284058 
	C556.214783,149.693954 553.608887,148.005569 552.442627,146.580994 
	C548.338867,141.568375 544.581665,136.269836 540.741089,131.044449 
	C519.915894,102.710403 496.588531,76.514503 472.421844,51.034538 
	C471.505859,50.068783 470.255188,49.238518 469.768127,48.087887 
	C468.903290,46.044952 467.322235,42.910290 468.144379,41.823055 
	C470.191986,39.115269 472.838257,35.624596 477.252808,37.872765 
	C479.283722,38.907036 481.305573,40.212097 482.893494,41.825497 
	C508.125031,67.462227 532.167114,94.122223 552.955383,124.017220 
z"/>
<path fill="#D0D1D2" opacity="1.000000" stroke="none" 
	d="
M369.678223,94.655579 
	C391.684906,76.104294 413.654419,57.508610 435.727081,39.036163 
	C440.606720,34.952423 445.863068,35.411625 449.433716,39.699326 
	C452.938202,43.907616 452.372284,48.909565 447.293182,53.225185 
	C429.287323,68.524277 411.149719,83.668282 393.058655,98.867050 
	C389.491150,101.864212 385.908813,104.843712 381.728760,107.883095 
	C377.308868,103.508423 373.493530,99.082001 369.678223,94.655579 
z"/>
<path fill="#D0D1D2" opacity="1.000000" stroke="none" 
	d="
M476.628601,221.773727 
	C495.042419,206.217941 513.454041,190.659515 531.872437,175.109146 
	C534.667297,172.749496 537.495422,170.429321 540.305359,168.087479 
	C546.187073,163.185516 551.387024,163.019531 555.179443,167.615784 
	C558.767029,171.963852 557.649414,177.539047 552.019287,182.282776 
	C534.725830,196.853714 517.381042,211.363754 500.054352,225.895279 
	C496.486908,228.887207 492.911499,231.869644 488.717224,234.940948 
	C484.272675,230.608200 480.450653,226.190964 476.628601,221.773727 
z"/>
<path fill="#8A919C" opacity="1.000000" stroke="none" 
	d="
M61.338730,370.003601 
	C63.002476,359.052917 71.028015,353.641693 79.095200,348.659546 
	C88.574478,342.805359 98.968193,338.353271 108.116074,332.058838 
	C123.160194,321.707336 137.631317,310.506470 152.127899,299.382080 
	C160.654114,292.839264 168.763062,285.752716 177.059677,278.910736 
	C177.474655,279.264893 177.889633,279.619049 178.304611,279.973236 
	C177.277954,281.313110 176.464264,282.913391 175.192398,283.953369 
	C158.710922,297.429749 142.207596,310.880524 125.589493,324.187561 
	C122.971664,326.283813 124.192474,327.884674 125.451454,329.641785 
	C138.628281,348.032074 150.845352,367.228912 165.313751,384.543213 
	C181.387146,403.778168 199.523102,421.289581 218.176422,441.050812 
	C220.310516,437.344635 221.790314,434.774750 223.270111,432.204865 
	C223.900864,432.698517 224.531616,433.192139 225.162384,433.685791 
	C224.628143,434.783264 224.291443,436.046600 223.530075,436.953369 
	C211.549179,451.223694 199.615784,465.536560 187.418152,479.620270 
	C184.401901,483.102966 180.681442,486.072571 176.943466,488.812500 
	C169.917847,493.962341 162.667099,493.467773 155.620544,488.659515 
	C139.744522,477.826477 125.151596,465.460815 112.144104,451.315063 
	C97.564034,435.459137 84.462700,418.414551 74.232521,399.430298 
	C69.226570,390.140717 65.622284,380.095795 61.338730,370.003601 
M133.487427,346.038879 
	C130.304749,341.164032 126.933975,336.398834 124.006287,331.375366 
	C122.092300,328.091217 120.339745,327.412659 116.900177,329.452087 
	C108.317596,334.540985 99.364639,339.011566 90.843460,344.195709 
	C83.767448,348.500641 76.622894,352.917755 70.362885,358.282013 
	C62.570396,364.959412 61.945515,370.475098 66.261978,379.660858 
	C79.619545,408.086731 97.194130,433.694733 119.554375,455.686554 
	C130.412979,466.366241 142.719421,475.607697 154.644623,485.157837 
	C163.454422,492.213074 171.084564,491.950989 179.161804,484.140991 
	C185.597031,477.918732 191.440491,471.056732 197.265747,464.238739 
	C203.711960,456.694061 209.838638,448.876373 216.487396,440.707123 
	C184.836395,412.652954 157.009232,381.689972 133.487427,346.038879 
z"/>
<path fill="#CDCECE" opacity="1.000000" stroke="none" 
	d="
M111.956680,309.739471 
	C125.967278,299.177185 139.977875,288.614929 154.241211,277.842834 
	C158.278275,276.427063 161.655182,273.275116 166.151443,276.447296 
	C169.371536,278.719147 169.673233,280.448883 166.750824,282.942017 
	C158.267944,290.178802 149.919113,297.578278 141.294113,304.640900 
	C136.023941,308.956360 130.341949,312.768921 124.290878,316.628326 
	C119.810112,314.212708 115.883392,311.976074 111.956680,309.739471 
z"/>
<path fill="#D0D1D1" opacity="1.000000" stroke="none" 
	d="
M310.201202,168.038513 
	C299.310913,177.279434 288.420654,186.520370 276.976562,195.708755 
	C272.638824,191.262024 268.854919,186.867844 265.070984,182.473663 
	C276.131531,173.087250 287.192078,163.700836 298.699524,154.462219 
	C302.831390,159.086182 306.516296,163.562347 310.201202,168.038513 
z"/>
<path fill="#CDCECE" opacity="1.000000" stroke="none" 
	d="
M227.919037,438.923248 
	C241.328690,425.142822 255.806839,412.645508 271.523956,401.422058 
	C275.413879,405.943665 276.299652,409.902588 273.043427,414.616394 
	C272.999054,415.001709 272.975342,414.954956 272.975342,414.954956 
	C269.610992,418.196014 266.286530,421.479706 262.874725,424.669983 
	C252.858078,434.036285 242.806747,443.365509 232.284698,452.556305 
	C230.506592,447.909973 229.212814,443.416626 227.919037,438.923248 
z"/>
<path fill="#D0D1D1" opacity="1.000000" stroke="none" 
	d="
M371.720245,309.712860 
	C382.622192,300.507050 393.524139,291.301270 405.016296,282.109283 
	C409.466125,286.428986 413.325775,290.734894 417.185425,295.040802 
	C406.282532,304.302338 395.379639,313.563873 383.900024,322.807465 
	C379.455627,318.430634 375.587921,314.071747 371.720245,309.712860 
z"/>
<path fill="#D0D1D1" opacity="1.000000" stroke="none" 
	d="
M241.080856,226.102066 
	C230.261963,235.260681 219.443069,244.419296 208.182343,253.405441 
	C204.130981,248.596619 200.521469,243.960266 196.911957,239.323914 
	C207.671799,230.301025 218.431625,221.278137 229.572571,212.415009 
	C233.662735,217.083862 237.371796,221.592972 241.080856,226.102066 
z"/>
<path fill="#D0D1D1" opacity="1.000000" stroke="none" 
	d="
M486.206482,237.133316 
	C475.350952,246.341232 464.495422,255.549164 453.215149,264.569122 
	C449.154297,259.870148 445.518250,255.359131 441.882202,250.848114 
	C452.414490,241.942963 462.946808,233.037811 474.066406,224.138214 
	C478.504608,228.473633 482.355560,232.803482 486.206482,237.133316 
z"/>
<path fill="#D0D1D1" opacity="1.000000" stroke="none" 
	d="
M348.099396,353.172760 
	C337.255707,362.334564 326.412048,371.496368 315.115845,380.507629 
	C311.010620,375.854767 307.357910,371.352448 303.705231,366.850159 
	C314.253510,357.922424 324.801819,348.994720 335.947327,340.088989 
	C340.396149,344.464874 344.247772,348.818817 348.099396,353.172760 
z"/>
<path fill="#D0D1D1" opacity="1.000000" stroke="none" 
	d="
M379.273071,110.084259 
	C368.701324,119.035461 358.129547,127.986671 346.975708,136.909454 
	C342.550171,132.522858 338.706696,128.164688 334.863251,123.806503 
	C345.678589,114.659561 356.493927,105.512611 367.760406,96.507004 
	C371.898743,101.126976 375.585907,105.605621 379.273071,110.084259 
z"/>
<path fill="#D0D1D1" opacity="1.000000" stroke="none" 
	d="
M407.487122,279.755066 
	C418.052399,270.821655 428.617706,261.888214 439.775940,253.045990 
	C444.196320,257.429077 448.023743,261.720947 451.851135,266.012817 
	C441.142578,275.067139 430.433990,284.121460 419.128967,293.104492 
	C414.850708,288.607117 411.168915,284.181091 407.487122,279.755066 
z"/>
<path fill="#D0D1D1" opacity="1.000000" stroke="none" 
	d="
M344.205536,139.737473 
	C333.724976,148.526672 323.244385,157.315887 312.183289,165.995331 
	C307.921814,161.476135 304.240936,157.066711 300.560059,152.657288 
	C311.116516,143.737961 321.672943,134.818619 332.835938,125.955032 
	C337.030182,130.586334 340.617859,135.161911 344.205536,139.737473 
z"/>
<path fill="#CFD0D1" opacity="1.000000" stroke="none" 
	d="
M381.941193,324.844391 
	C371.248352,333.829956 360.555511,342.815521 349.478424,351.631134 
	C345.400208,346.948578 341.706268,342.435974 338.012299,337.923370 
	C348.494598,329.063568 358.976898,320.203766 370.010620,311.382568 
	C374.355103,315.895538 378.148163,320.369965 381.941193,324.844391 
z"/>
<path fill="#D0D1D1" opacity="1.000000" stroke="none" 
	d="
M231.025940,210.820190 
	C241.528076,201.967331 252.030212,193.114471 263.104340,184.266815 
	C267.468079,188.781937 271.259796,193.291855 275.051544,197.801773 
	C264.619232,206.545731 254.186935,215.289703 243.146835,223.967529 
	C238.701340,219.540970 234.863647,215.180588 231.025940,210.820190 
z"/>
<path fill="#3B3C40" opacity="1.000000" stroke="none" 
	d="
M99.035965,452.408661 
	C109.540741,462.371216 119.694099,472.380707 129.890167,482.346497 
	C131.915329,484.325897 131.258911,485.585724 129.238556,487.067871 
	C122.471016,492.032501 122.495689,492.094391 116.612915,486.195404 
	C108.083229,477.642242 99.572937,469.069733 90.588364,460.036926 
	C93.454437,457.352661 96.076988,454.896454 99.035965,452.408661 
z"/>
<path fill="#CFD0D1" opacity="1.000000" stroke="none" 
	d="
M313.289459,382.254578 
	C308.775543,386.126648 304.397736,390.173615 299.709381,393.821472 
	C295.054413,397.443298 289.692291,396.910400 286.411255,392.960236 
	C283.027313,388.886292 283.510101,383.840027 288.014191,379.749756 
	C292.051666,376.083313 296.349274,372.703339 301.113220,369.199982 
	C305.559387,373.553497 309.424438,377.904053 313.289459,382.254578 
z"/>
<path fill="#CFD0D2" opacity="1.000000" stroke="none" 
	d="
M206.309387,255.167557 
	C201.764343,259.065887 197.345978,263.125854 192.637405,266.815491 
	C188.227768,270.270844 182.794800,269.682007 179.656342,265.839844 
	C176.623520,262.127014 177.056305,256.368011 180.990997,252.769989 
	C185.289520,248.839264 189.851044,245.196152 194.728027,241.532562 
	C198.875229,246.147507 202.592300,250.657532 206.309387,255.167557 
z"/>
<path fill="#CCCDCD" opacity="1.000000" stroke="none" 
	d="
M201.399445,478.859924 
	C200.968506,478.492218 200.811966,478.272766 200.387024,478.029388 
	C197.570786,475.571777 197.786240,473.134094 199.979111,470.590485 
	C207.479706,461.890350 214.961349,453.173859 223.048157,444.408325 
	C225.083252,448.608826 226.520432,452.864624 227.957611,457.120392 
	C220.832550,463.616058 213.756454,470.167023 206.537048,476.556122 
	C205.246704,477.698059 203.363327,478.169922 201.399445,478.859924 
z"/>
<path fill="#CCCDCD" opacity="1.000000" stroke="none" 
	d="
M82.422028,337.720551 
	C82.061729,336.520874 81.970039,335.561615 81.869423,334.233276 
	C90.297241,327.002045 98.733994,320.139954 107.705902,313.400879 
	C112.083557,315.493988 115.926048,317.464081 119.768539,319.434204 
	C108.986000,326.023468 98.249519,332.691467 87.343491,339.069580 
	C86.348854,339.651276 84.267410,338.374664 82.422028,337.720551 
z"/>
<path fill="#3A3F47" opacity="1.000000" stroke="none" 
	d="
M49.907410,477.331635 
	C43.173042,467.682983 36.438679,458.034302 29.448578,448.177582 
	C29.106668,446.066223 29.020493,444.162903 28.934319,442.259583 
	C29.243399,442.171143 29.552477,442.082733 29.861557,441.994293 
	C37.280849,453.042358 44.700142,464.090393 51.944931,475.268188 
	C51.149426,476.042542 50.528423,476.687073 49.907410,477.331635 
z"/>
<path fill="#3B3F47" opacity="1.000000" stroke="none" 
	d="
M77.547318,506.827271 
	C76.886574,506.324768 76.514244,505.952911 75.940063,505.409790 
	C72.794479,502.483978 69.850754,499.729431 66.611198,496.828400 
	C63.279118,493.358765 60.242874,490.035583 56.971958,486.485077 
	C56.539749,486.033203 56.372299,485.788116 56.543468,485.252930 
	C57.270824,484.101501 57.689655,483.219574 58.108482,482.337646 
	C67.858025,491.854858 77.607559,501.372040 87.804970,511.326447 
	C86.025902,511.135803 84.395302,510.961090 82.427719,510.668457 
	C80.672409,509.352997 79.254066,508.155457 77.547318,506.827271 
z"/>
<path fill="#8F9297" opacity="1.000000" stroke="none" 
	d="
M228.257004,456.977692 
	C226.520432,452.864624 225.083252,448.608826 223.310455,444.215454 
	C224.430801,442.459045 225.886780,440.840240 227.630920,439.072327 
	C229.212814,443.416626 230.506592,447.909973 232.004608,452.723236 
	C230.991364,454.307068 229.773880,455.571014 228.257004,456.977692 
z"/>
<path fill="#8D9199" opacity="1.000000" stroke="none" 
	d="
M120.077553,319.432190 
	C115.926048,317.464081 112.083557,315.493988 107.999619,313.255615 
	C108.944931,311.978607 110.131683,310.969910 111.637558,309.850342 
	C115.883392,311.976074 119.810112,314.212708 123.971939,316.719025 
	C122.933563,317.802551 121.660065,318.616364 120.077553,319.432190 
z"/>
<path fill="#96999E" opacity="1.000000" stroke="none" 
	d="
M344.450867,139.644211 
	C340.617859,135.161911 337.030182,130.586334 333.144104,125.796013 
	C333.325378,125.032402 333.805023,124.483551 334.573975,123.870605 
	C338.706696,128.164688 342.550171,132.522858 346.674622,137.086090 
	C346.202454,138.044418 345.449310,138.797684 344.450867,139.644211 
z"/>
<path fill="#91949A" opacity="1.000000" stroke="none" 
	d="
M337.706787,337.963043 
	C341.706268,342.435974 345.400208,346.948578 349.209045,351.816345 
	C349.084778,352.438354 348.845642,352.705200 348.352936,353.072388 
	C344.247772,348.818817 340.396149,344.464874 336.248047,339.921478 
	C336.434784,339.155579 336.918030,338.579163 337.706787,337.963043 
z"/>
<path fill="#92969B" opacity="1.000000" stroke="none" 
	d="
M407.220581,279.820435 
	C411.168915,284.181091 414.850708,288.607117 418.817841,293.270935 
	C418.623352,293.962708 418.143555,294.416687 417.424561,294.955750 
	C413.325775,290.734894 409.466125,286.428986 405.315155,281.933624 
	C405.667236,281.124695 406.310669,280.505249 407.220581,279.820435 
z"/>
<path fill="#868E9B" opacity="1.000000" stroke="none" 
	d="
M272.976959,414.987061 
	C274.290894,414.552368 275.602570,413.957245 276.970551,413.766785 
	C278.092041,413.610596 279.280609,413.936005 280.439423,414.047913 
	C280.213226,415.211578 280.197968,416.478607 279.694397,417.506378 
	C279.288147,418.335449 278.399689,419.140259 277.536407,419.490295 
	C275.604004,420.273865 273.553864,420.767181 271.551697,421.378723 
	C272.084259,419.489838 272.616821,417.600922 273.062378,415.333496 
	C272.975342,414.954956 272.999054,415.001709 272.976959,414.987061 
z"/>
<path fill="#868E9B" opacity="1.000000" stroke="none" 
	d="
M154.075821,276.604858 
	C152.466461,276.545380 151.013870,276.191467 149.561264,275.837555 
	C150.431259,274.237396 151.301254,272.637268 152.306030,270.748474 
	C154.798904,270.861084 156.731461,265.742126 158.916077,269.605286 
	C159.435379,270.523621 156.608658,273.352295 155.286667,275.278687 
	C155.013733,275.676422 154.587921,275.969208 154.075821,276.604858 
z"/>
<path fill="#91949A" opacity="1.000000" stroke="none" 
	d="
M206.586578,255.094116 
	C202.592300,250.657532 198.875229,246.147507 194.985397,241.339111 
	C195.307693,240.460434 195.802719,239.880127 196.604843,239.311874 
	C200.521469,243.960266 204.130981,248.596619 207.882874,253.530701 
	C207.638092,254.225845 207.250931,254.623276 206.586578,255.094116 
z"/>
<path fill="#91949A" opacity="1.000000" stroke="none" 
	d="
M313.555542,382.167908 
	C309.424438,377.904053 305.559387,373.553497 301.410889,369.023804 
	C301.773438,368.179321 302.419403,367.514008 303.385315,366.849426 
	C307.357910,371.352448 311.010620,375.854767 314.815491,380.650391 
	C314.585663,381.322906 314.203644,381.702087 313.555542,382.167908 
z"/>
<path fill="#92969B" opacity="1.000000" stroke="none" 
	d="
M379.540649,110.024399 
	C375.585907,105.605621 371.898743,101.126976 368.045532,96.350525 
	C368.290283,95.648636 368.700989,95.244560 369.394958,94.748032 
	C373.493530,99.082001 377.308868,103.508423 381.421173,108.058792 
	C381.081512,108.776665 380.444885,109.370590 379.540649,110.024399 
z"/>
<path fill="#92969B" opacity="1.000000" stroke="none" 
	d="
M486.479980,237.065948 
	C482.355560,232.803482 478.504608,228.473633 474.365051,223.961548 
	C474.740570,223.148117 475.404694,222.516922 476.348694,221.829712 
	C480.450653,226.190964 484.272675,230.608200 488.409424,235.118286 
	C488.067230,235.806931 487.410339,236.402756 486.479980,237.065948 
z"/>
<path fill="#91949A" opacity="1.000000" stroke="none" 
	d="
M452.113220,265.938477 
	C448.023743,261.720947 444.196320,257.429077 440.088318,252.907639 
	C440.300812,252.108429 440.793884,251.538788 441.584595,250.908630 
	C445.518250,255.359131 449.154297,259.870148 452.909180,264.705261 
	C452.810394,265.307587 452.592804,265.585846 452.113220,265.938477 
z"/>
<path fill="#91949A" opacity="1.000000" stroke="none" 
	d="
M230.749573,210.913483 
	C234.863647,215.180588 238.701340,219.540970 242.833054,224.107468 
	C242.641190,224.873947 242.155319,225.434311 241.375153,226.048370 
	C237.371796,221.592972 233.662735,217.083862 229.839966,212.227982 
	C229.975250,211.589737 230.224243,211.298264 230.749573,210.913483 
z"/>
<path fill="#92969B" opacity="1.000000" stroke="none" 
	d="
M275.305969,197.728348 
	C271.259796,193.291855 267.468079,188.781937 263.398010,184.090485 
	C263.620605,183.481964 264.121521,183.054993 264.846710,182.550842 
	C268.854919,186.867844 272.638824,191.262024 276.677185,195.870728 
	C276.474518,196.608475 276.017456,197.131699 275.305969,197.728348 
z"/>
<path fill="#93959A" opacity="1.000000" stroke="none" 
	d="
M300.289917,152.745834 
	C304.240936,157.066711 307.921814,161.476135 311.865906,166.137146 
	C311.647614,166.876770 311.166077,167.364807 310.442871,167.945679 
	C306.516296,163.562347 302.831390,159.086182 298.982452,154.300537 
	C299.218903,153.605484 299.619324,153.219925 300.289917,152.745834 
z"/>
<path fill="#92969B" opacity="1.000000" stroke="none" 
	d="
M382.205627,324.785339 
	C378.148163,320.369965 374.355103,315.895538 370.302490,311.219849 
	C370.421539,310.637482 370.800110,310.256378 371.449463,309.794067 
	C375.587921,314.071747 379.455627,318.430634 383.599426,322.980957 
	C383.407074,323.690338 382.938599,324.208313 382.205627,324.785339 
z"/>
<path fill="#D9D9DA" opacity="1.000000" stroke="none" 
	d="
M57.901337,482.200195 
	C57.689655,483.219574 57.270824,484.101501 56.491333,485.035767 
	C55.958897,485.050507 55.787121,485.012909 55.354736,484.934998 
	C55.026295,484.553619 54.848358,484.285645 54.331104,484.000854 
	C53.452877,482.860657 52.803867,481.810394 51.942139,480.524200 
	C51.184116,479.483185 50.638824,478.678070 50.000473,477.602295 
	C50.528423,476.687073 51.149426,476.042542 52.163898,475.601746 
	C54.269642,477.891235 55.981918,479.976990 57.901337,482.200195 
z"/>
<path fill="#D2D2D1" opacity="1.000000" stroke="none" 
	d="
M133.682526,346.343292 
	C157.009232,381.689972 184.836395,412.652954 216.487396,440.707123 
	C209.838638,448.876373 203.711960,456.694061 197.265747,464.238739 
	C191.440491,471.056732 185.597031,477.918732 179.161804,484.140991 
	C171.084564,491.950989 163.454422,492.213074 154.644623,485.157837 
	C142.719421,475.607697 130.412979,466.366241 119.554375,455.686554 
	C97.194130,433.694733 79.619545,408.086731 66.261978,379.660858 
	C61.945515,370.475098 62.570396,364.959412 70.362885,358.282013 
	C76.622894,352.917755 83.767448,348.500641 90.843460,344.195709 
	C99.364639,339.011566 108.317596,334.540985 116.900177,329.452087 
	C120.339745,327.412659 122.092300,328.091217 124.006287,331.375366 
	C126.933975,336.398834 130.304749,341.164032 133.682526,346.343292 
z"/>
</svg>