<svg xmlns="http://www.w3.org/2000/svg" xmlns:xlink="http://www.w3.org/1999/xlink" style="enable-background:new 0 0 91 91;" version="1.1" xml:space="preserve" width="53" height="53"><rect id="backgroundrect" width="100%" height="100%" x="0" y="0" fill="none" stroke="none"/><g class="currentLayer" style=""><title>Layer 1</title><g id="svg_1" class="" fill-opacity="1" fill="#5e6383"><path d="M37.79999923706055,24.700000000000003 h8.5 c-0.8,-9.7 -8.6,-17.4 -18.2,-18.2 v8.5 h-3.4 v-8.5 c-9.7,0.8 -17.4,8.6 -18.2,18.2 h8.5 v3.4 h-8.5 c0.8,9.7 8.6,17.4 18.2,18.2 v-8.5 h3.4 v8.5 c9.7,-0.8 17.4,-8.6 18.2,-18.2 H37.79999923706055 V24.700000000000003 zM26.299999237060547,29.5 c-1.8,0 -3.2,-1.4 -3.2,-3.2 c0,-1.7000000000000002 1.4,-3.2 3.2,-3.2 s3.2,1.4 3.2,3.2 C29.49999923706055,28.1 28.099999237060544,29.5 26.299999237060547,29.5 z" id="svg_2" fill="#5e6383"/><path d="M46.39999923706054,26.4 c0,0.6000000000000001 0,1.1 -0.1,1.7000000000000002 h6.4 v-3.4 h-6.4 C46.29999923706055,25.200000000000003 46.39999923706054,25.799999999999997 46.39999923706054,26.4 z" id="svg_3" fill="#5e6383"/><path d="M6.399999237060548,24.700000000000003 h-6.4 v3.4 h6.4 c0,-0.6000000000000001 -0.1,-1.1 -0.1,-1.7000000000000002 S6.399999237060548,25.200000000000003 6.399999237060548,24.700000000000003 z" id="svg_4" fill="#5e6383"/><path d="M27.99999923706055,6.399999999999999 v-6.4 h-3.4 v6.4 c0.6000000000000001,0 1.1,-0.1 1.7000000000000002,-0.1 S27.49999923706055,6.399999999999999 27.99999923706055,6.399999999999999 z" id="svg_5" fill="#5e6383"/><path d="M24.699999237060545,46.3 v6.4 h3.4 v-6.4 c-0.6000000000000001,0 -1.1,0.1 -1.7000000000000002,0.1 S25.199999237060545,46.3 24.699999237060545,46.3 z" id="svg_6" fill="#5e6383"/></g></g></svg>