<svg xmlns="http://www.w3.org/2000/svg" xmlns:xlink="http://www.w3.org/1999/xlink" version="1.1" style="" xml:space="preserve" width="283.147" height="283.147"><rect id="backgroundrect" width="100%" height="100%" x="0" y="0" fill="none" stroke="none"/>
















<g class="currentLayer" style=""><title>Layer 1</title><g class="" fill-opacity="1" fill="#5e6383"><g id="svg_1" class="" fill="#5e6383">
	<path d="M207.623,141.527H76.219c-2.792,0-5.056,2.264-5.056,5.056s2.264,5.056,5.056,5.056h131.404   c2.792,0,5.056-2.264,5.056-5.056C212.679,143.79,210.416,141.527,207.623,141.527z" id="svg_2" fill="#5e6383"/>
	<path d="M60.506,176.963c-2.792,0-5.056,2.264-5.056,5.056c0,2.68-2.179,4.861-4.858,4.861c-2.68,0-4.861-2.18-4.861-4.861   c0-2.679,2.18-4.859,4.861-4.859c2.792,0,5.056-2.264,5.056-5.056s-2.264-5.056-5.056-5.056c-8.256,0-14.973,6.716-14.973,14.971   c0,8.256,6.717,14.973,14.973,14.973c8.255,0,14.97-6.717,14.97-14.973C65.562,179.227,63.299,176.963,60.506,176.963z" id="svg_3" fill="#5e6383"/>
	<path d="M242.757,176.963c-2.792,0-5.056,2.264-5.056,5.056c0,2.68-2.179,4.861-4.858,4.861c-2.68,0-4.861-2.18-4.861-4.861   c0-2.679,2.18-4.859,4.861-4.859c2.792,0,5.056-2.264,5.056-5.056s-2.264-5.056-5.056-5.056c-8.256,0-14.973,6.716-14.973,14.971   c0,8.256,6.717,14.973,14.973,14.973c8.255,0,14.97-6.717,14.97-14.973C247.813,179.227,245.549,176.963,242.757,176.963z" id="svg_4" fill="#5e6383"/>
	<path d="M260.633,123.449c-0.116-0.049-0.233-0.092-0.351-0.133c-1.42-0.523-2.915-1.016-4.507-1.469   c-18.582-5.288-57.157-5.349-58.79-5.349h-8.151l-16.038-26.889c-7.319-12.213-14.185-18.831-29.48-18.831H47.489   c-12.262,0-24.443,8.25-31.788,21.53c-0.037,0.068-0.073,0.136-0.107,0.205L1.288,121.426c-0.112,0.226-0.207,0.461-0.284,0.701   c-1.079,3.372-1.019,7.595-0.995,8.433v29.962c0,13.698,11.483,20.265,20.26,22.609c0.589,16.222,13.962,29.239,30.325,29.239   c15.009,0,27.501-10.958,29.917-25.295h122.412c2.416,14.336,14.91,25.295,29.923,25.295c15.009,0,27.501-10.958,29.917-25.295   h15.33c2.792,0,5.056-2.264,5.056-5.056v-29.441C283.147,142.911,279.083,130.38,260.633,123.449z M269.854,141.827l-11.775,0.003   v-4.955c0-0.579,0.388-1.845,1.388-2.995C264.15,135.961,267.604,138.6,269.854,141.827z M177.06,116.498H67.034l6.725-13.958   c2.254-4.618,5.597-6.588,11.178-6.588h79.87L177.06,116.498z M24.604,97.104c0.217-0.391,0.442-0.774,0.669-1.153   c0.008,0,0.016,0.001,0.024,0.001h21.857l-10.231,20.303H15.128L24.604,97.104z M10.119,130.305   c-0.03-0.932,0.027-2.58,0.254-3.938h5.174v15.466h-5.424V130.48C10.122,130.425,10.12,130.36,10.119,130.305z M50.594,202.259   c-11.161,0-20.241-9.08-20.241-20.241c0-11.159,9.08-20.237,20.241-20.237c11.157,0,20.234,9.079,20.234,20.237   C70.828,193.179,61.751,202.259,50.594,202.259z M232.845,202.259c-11.161,0-20.241-9.08-20.241-20.241   c0-11.159,9.08-20.237,20.241-20.237c11.157,0,20.234,9.079,20.234,20.237C253.078,193.179,244.002,202.259,232.845,202.259z    M273.035,176.964h-10.273c-2.414-14.336-14.906-25.295-29.917-25.295c-15.014,0-27.509,10.959-29.923,25.295H80.511   c-2.414-14.336-14.906-25.295-29.917-25.295c-13.585,0-25.113,8.971-28.974,21.299c-4.717-1.481-11.498-4.919-11.498-12.445v-8.577   h5.424c5.576,0,10.112-4.537,10.112-10.112v-15.466h14.378c1.909,0,3.656-1.076,4.515-2.781l15.326-30.415   c0.79-1.567,0.71-3.432-0.21-4.926c-0.92-1.494-2.55-2.405-4.305-2.405H34.119c4.17-3.176,8.799-4.95,13.37-4.95h95.828   c6.584,0,10.646,1.413,14.257,4.95H84.935c-9.474,0-16.292,4.126-20.276,12.287l-10.112,20.989   c-0.33,0.684-0.501,1.435-0.501,2.194v0.243c0,2.792,2.264,5.056,5.056,5.056h137.882c0.361,0,34.103,0.053,52.526,4.092   c-1.045,2.113-1.544,4.286-1.544,6.173v10.015c0,1.342,0.533,2.628,1.482,3.577c0.948,0.947,2.234,1.48,3.574,1.48   c0.001,0,0.003,0,0.004,0l19.997-0.007c0.006,0.213,0.013,0.425,0.013,0.641L273.035,176.964L273.035,176.964z" id="svg_5" fill="#5e6383"/>
</g><g id="svg_6" class="" fill="#5e6383">
</g><g id="svg_7" class="" fill="#5e6383">
</g><g id="svg_8" class="" fill="#5e6383">
</g><g id="svg_9" class="" fill="#5e6383">
</g><g id="svg_10" class="" fill="#5e6383">
</g><g id="svg_11" class="" fill="#5e6383">
</g><g id="svg_12" class="" fill="#5e6383">
</g><g id="svg_13" class="" fill="#5e6383">
</g><g id="svg_14" class="" fill="#5e6383">
</g><g id="svg_15" class="" fill="#5e6383">
</g><g id="svg_16" class="" fill="#5e6383">
</g><g id="svg_17" class="" fill="#5e6383">
</g><g id="svg_18" class="" fill="#5e6383">
</g><g id="svg_19" class="" fill="#5e6383">
</g><g id="svg_20" class="" fill="#5e6383">
</g></g></g></svg>