<svg xmlns="http://www.w3.org/2000/svg" xmlns:xlink="http://www.w3.org/1999/xlink" version="1.1" style="" xml:space="preserve" width="455.8940124511719" height="455.8940124511719"><rect id="backgroundrect" width="100%" height="100%" x="0" y="0" fill="none" stroke="none"/>
















<g class="currentLayer" style=""><title>Layer 1</title>
	<path d="M95.721,307.966c-4.418,0-8,3.582-8,8c0,4.241-3.448,7.691-7.687,7.691c-4.241,0-7.691-3.45-7.691-7.691   c0-4.24,3.45-7.689,7.691-7.689c4.418,0,8-3.582,8-8s-3.582-8-8-8c-13.063,0-23.691,10.627-23.691,23.689   c0,13.063,10.628,23.691,23.691,23.691c13.061,0,23.687-10.628,23.687-23.691C103.721,311.547,100.14,307.966,95.721,307.966z" id="svg_2" fill="#919191" fill-opacity="1" class=""/><path d="M95.721,307.966 c-4.418,0 -8,3.582 -8,8 c0,4.241 -3.448,7.691 -7.687,7.691 c-4.241,0 -7.691,-3.45 -7.691,-7.691 c0,-4.24 3.45,-7.689 7.691,-7.689 c4.418,0 8,-3.582 8,-8 s-3.582,-8 -8,-8 c-13.063,0 -23.691,10.627 -23.691,23.689 c0,13.063 10.628,23.691 23.691,23.691 c13.061,0 23.687,-10.628 23.687,-23.691 C103.721,311.547 100.14,307.966 95.721,307.966 z" fill="#22b9ff" fill-opacity="1" class="" id="svg_22"/>
	<path d="M175.762,307.966c-4.418,0-8,3.582-8,8c0,4.241-3.448,7.691-7.687,7.691c-4.241,0-7.691-3.45-7.691-7.691   c0-4.24,3.45-7.689,7.691-7.689c4.418,0,8-3.582,8-8s-3.582-8-8-8c-13.063,0-23.691,10.627-23.691,23.689   c0,13.063,10.628,23.691,23.691,23.691c13.061,0,23.687-10.628,23.687-23.691C183.762,311.547,180.181,307.966,175.762,307.966z" id="svg_3" fill="#22b9ff" fill-opacity="1" class=""/>
	<path d="M384.091,307.966c-4.418,0-8,3.582-8,8c0,4.241-3.448,7.691-7.687,7.691c-4.241,0-7.691-3.45-7.691-7.691   c0-4.24,3.45-7.689,7.691-7.689c4.418,0,8-3.582,8-8s-3.582-8-8-8c-13.063,0-23.691,10.627-23.691,23.689   c0,13.063,10.628,23.691,23.691,23.691c13.061,0,23.687-10.628,23.687-23.691C392.091,311.547,388.51,307.966,384.091,307.966z" id="svg_4" fill="#22b9ff" fill-opacity="1" class=""/>
	<path d="M455.717,242.562L436.7,153.788c-3.352-16.788-19.366-29.929-36.489-29.929h-47.604v-15.956c0-8.823-7.178-16-16-16H16   c-8.822,0-16,7.177-16,16v200.063c0,8.822,7.178,16,16,16h16.691c3.823,22.684,23.592,40.023,47.347,40.023   c16.688,0,31.408-8.564,40.016-21.524c8.61,12.96,23.333,21.524,40.025,21.524c23.749,0,43.514-17.339,47.336-40.023h113.646   c3.823,22.684,23.592,40.023,47.347,40.023c23.749,0,43.514-17.339,47.336-40.023h32.151c4.418,0,8-3.582,8-8v-71.729   C455.894,243.674,455.834,243.113,455.717,242.562z M437.999,236.238h-52.274c-0.527-0.109-1.074-0.167-1.634-0.167   c-4.5,0-8.162-3.661-8.162-8.162v-56.255h48.235L437.999,236.238z M16,107.904h320.608v172.117   c-8.046,7.125-13.687,16.899-15.548,27.946H207.416c-3.82-22.684-23.586-40.023-47.337-40.023   c-16.691,0-31.415,8.563-40.025,21.521c-8.608-12.958-23.328-21.521-40.016-21.521c-23.756,0-43.527,17.34-47.348,40.023H16   V107.904z M80.038,347.99c-17.659,0-32.026-14.367-32.026-32.026c0-17.656,14.367-32.021,32.026-32.021   c17.653,0,32.015,14.364,32.015,32.021C112.053,333.623,97.691,347.99,80.038,347.99z M160.079,347.99   c-17.659,0-32.026-14.367-32.026-32.026c0-17.656,14.367-32.021,32.026-32.021c17.653,0,32.016,14.364,32.016,32.021   C192.094,333.623,177.732,347.99,160.079,347.99z M368.408,347.99c-17.659,0-32.026-14.367-32.026-32.026   c0-17.656,14.367-32.021,32.026-32.021c17.653,0,32.015,14.364,32.015,32.021C400.423,333.623,386.061,347.99,368.408,347.99z    M415.744,307.967c-3.82-22.684-23.586-40.023-47.337-40.023c-5.535,0-10.848,0.952-15.8,2.683V139.86h47.604   c9,0,18.057,7.109,20.479,15.794h-52.761c-4.418,0-8,3.582-8,8v64.255c0,12.655,9.781,23.069,22.18,24.081   c0.634,0.162,1.298,0.248,1.982,0.248h55.803v7.917h-7.788c-4.418,0-8,3.582-8,8s3.582,8,8,8h7.788v31.813H415.744z" id="svg_5" fill="#5e6383" fill-opacity="1" class=""/>
	<path d="M40.011,139.86H312c4.418,0,8-3.582,8-8s-3.582-8-8-8H40.011c-4.418,0-8,3.582-8,8S35.593,139.86,40.011,139.86z" id="svg_6" fill="#919191" fill-opacity="1" class=""/><path d="M40.011,139.86 H312 c4.418,0 8,-3.582 8,-8 s-3.582,-8 -8,-8 H40.011 c-4.418,0 -8,3.582 -8,8 S35.593,139.86 40.011,139.86 z" fill="#22b9ff" fill-opacity="1" class="" id="svg_1"/>
<g id="svg_7">
</g><g id="svg_8">
</g><g id="svg_9">
</g><g id="svg_10">
</g><g id="svg_11">
</g><g id="svg_12">
</g><g id="svg_13">
</g><g id="svg_14">
</g><g id="svg_15">
</g><g id="svg_16">
</g><g id="svg_17">
</g><g id="svg_18">
</g><g id="svg_19">
</g><g id="svg_20">
</g><g id="svg_21">
</g></g></svg>