<svg width="250" height="250" xmlns="http://www.w3.org/2000/svg">
 <title/>
 <desc/>

 <g>
  <title>background</title>
  <rect fill="none" id="canvas_background" height="252" width="252" y="-1" x="-1"/>
 </g>
 <g>
  <title>Layer 1</title>
  <g id="Page-1" fill-rule="evenodd" fill="none">
   <g stroke="null" id="icon-65-document-image" fill="#929292">
    <path stroke="null" id="document-image" d="m174.5,192.91157l0,-54.41157l-99,0l0,63l0,0l22.5,-18l13.12146,11.24694l32.71581,-29.24694l30.66273,27.41157l0,0l0,0zm-27,-189.41157l-89.92323,0c-9.98352,0 -18.07677,8.08506 -18.07677,18.06597l0,206.86806c0,9.97758 8.01837,18.06597 17.97678,18.06597l135.04644,0c9.92826,0 17.97678,-8.01837 17.97678,-17.97678l0,-153.02322l-44.94672,0c-9.97056,0 -18.05328,-7.98039 -18.05328,-17.9829l0,-54.0171l0,0zm9,0l0,53.97363c0,4.9851 4.05882,9.02637 8.91702,9.02637l45.08298,0l-54,-63l0,0zm-90,126l0,90l117,0l0,-90l-117,0l0,0zm36,36c4.97052,0 9,-4.02948 9,-9c0,-4.97052 -4.02948,-9 -9,-9c-4.97052,0 -9,4.02948 -9,9c0,4.97052 4.02948,9 9,9l0,0z"/>
   </g>
  </g>
 </g>
</svg>