<svg xmlns="http://www.w3.org/2000/svg" enable-background="new 0 0 24 24" height="24" width="24" style=""><rect id="backgroundrect" width="100%" height="100%" x="0" y="0" fill="none" stroke="none"/><g class="currentLayer" style=""><title>Layer 1</title><g id="XMLID_1_" class="" stroke="none" fill-opacity="1" fill="#a8a4d6"><path d="m14,8.909468677043915 l8.81,1.75 c0.7100000000000001,0.15000000000000002 1.19,0.7500000000000001 1.19,1.46 v10.2 c0,0.8300000000000001 -0.6700000000000002,1.5 -1.5,1.5 h-9 c0.28,0 0.5,-0.22000000000000003 0.5,-0.5 v-0.5 h8.5 c0.27,0 0.5,-0.22000000000000003 0.5,-0.5 v-10.2 c0,-0.23 -0.16000000000000003,-0.44000000000000006 -0.39000000000000007,-0.49000000000000005 l-8.61,-1.7000000000000002 z" id="svg_1" stroke="none" fill="#a8a4d6"/><path d="m19.5,13.819468677043915 c0.28,0 0.5,0.22000000000000003 0.5,0.5 s-0.22000000000000003,0.5 -0.5,0.5 h-2 c-0.28,0 -0.5,-0.22000000000000003 -0.5,-0.5 s0.22000000000000003,-0.5 0.5,-0.5 z" id="svg_2" stroke="none" fill="#a8a4d6"/><path d="m19.5,16.819468677043915 c0.28,0 0.5,0.22000000000000003 0.5,0.5 s-0.22000000000000003,0.5 -0.5,0.5 h-2 c-0.28,0 -0.5,-0.22000000000000003 -0.5,-0.5 s0.22000000000000003,-0.5 0.5,-0.5 z" id="svg_3" stroke="none" fill="#a8a4d6"/><path d="m19.5,19.819468677043915 c0.28,0 0.5,0.22000000000000003 0.5,0.5 s-0.22000000000000003,0.5 -0.5,0.5 h-2 c-0.28,0 -0.5,-0.22000000000000003 -0.5,-0.5 s0.22000000000000003,-0.5 0.5,-0.5 z" id="svg_4" stroke="none" fill="#a8a4d6"/><path d="m14,23.319468677043915 c0,0.28 -0.22000000000000003,0.5 -0.5,0.5 s-0.5,-0.22000000000000003 -0.5,-0.5 v-0.5 v-13.5 c0,-0.15000000000000002 0.07,-0.29000000000000004 0.18000000000000002,-0.39000000000000007 c0.12000000000000001,-0.09000000000000002 0.27,-0.13 0.42000000000000004,-0.1 l0.4,0.08000000000000002 v1.02 v12.89 z" id="svg_5" stroke="none" fill="#a8a4d6"/><path d="m13,22.819468677043915 v0.5 c0,0.28 0.22000000000000003,0.5 0.5,0.5 h-4 c0.28,0 0.5,-0.22000000000000003 0.5,-0.5 v-0.5 z" id="svg_6" stroke="none" fill="#a8a4d6"/><path d="m10.5,4.819468677043915 c0.28,0 0.5,0.22000000000000003 0.5,0.5 s-0.22000000000000003,0.5 -0.5,0.5 h-2 c-0.28,0 -0.5,-0.22000000000000003 -0.5,-0.5 s0.22000000000000003,-0.5 0.5,-0.5 z" id="svg_7" stroke="none" fill="#a8a4d6"/><path d="m11,8.319468677043915 c0,0.28 -0.22000000000000003,0.5 -0.5,0.5 h-2 c-0.28,0 -0.5,-0.22000000000000003 -0.5,-0.5 s0.22000000000000003,-0.5 0.5,-0.5 h2 c0.28,0 0.5,0.22000000000000003 0.5,0.5 z" id="svg_8" stroke="none" fill="#a8a4d6"/><path d="m10.5,10.819468677043915 c0.28,0 0.5,0.22000000000000003 0.5,0.5 s-0.22000000000000003,0.5 -0.5,0.5 h-2 c-0.28,0 -0.5,-0.22000000000000003 -0.5,-0.5 s0.22000000000000003,-0.5 0.5,-0.5 z" id="svg_9" stroke="none" fill="#a8a4d6"/><path d="m10.5,13.819468677043915 c0.28,0 0.5,0.22000000000000003 0.5,0.5 s-0.22000000000000003,0.5 -0.5,0.5 h-2 c-0.28,0 -0.5,-0.22000000000000003 -0.5,-0.5 s0.22000000000000003,-0.5 0.5,-0.5 z" id="svg_10" stroke="none" fill="#a8a4d6"/><path d="m6,14.319468677043915 c0,0.28 -0.22000000000000003,0.5 -0.5,0.5 h-2 c-0.28,0 -0.5,-0.22000000000000003 -0.5,-0.5 s0.22000000000000003,-0.5 0.5,-0.5 h2 c0.28,0 0.5,0.22000000000000003 0.5,0.5 z" id="svg_11" stroke="none" fill="#a8a4d6"/><path d="m5.5,4.819468677043915 c0.28,0 0.5,0.22000000000000003 0.5,0.5 s-0.22000000000000003,0.5 -0.5,0.5 h-2 c-0.28,0 -0.5,-0.22000000000000003 -0.5,-0.5 s0.22000000000000003,-0.5 0.5,-0.5 z" id="svg_12" stroke="none" fill="#a8a4d6"/><path d="m5.5,7.819468677043915 c0.28,0 0.5,0.22000000000000003 0.5,0.5 s-0.22000000000000003,0.5 -0.5,0.5 h-2 c-0.28,0 -0.5,-0.22000000000000003 -0.5,-0.5 s0.22000000000000003,-0.5 0.5,-0.5 z" id="svg_13" stroke="none" fill="#a8a4d6"/><path d="m5.5,10.819468677043915 c0.28,0 0.5,0.22000000000000003 0.5,0.5 s-0.22000000000000003,0.5 -0.5,0.5 h-2 c-0.28,0 -0.5,-0.22000000000000003 -0.5,-0.5 s0.22000000000000003,-0.5 0.5,-0.5 z" id="svg_14" stroke="none" fill="#a8a4d6"/><path d="m9,18.319468677043915 c0,-0.28 -0.23,-0.5 -0.5,-0.5 h-3 c-0.28,0 -0.5,0.22000000000000003 -0.5,0.5 v4.5 h-1 v-4.5 c0,-0.8300000000000001 0.6700000000000002,-1.5 1.5,-1.5 h3 c0.8300000000000001,0 1.5,0.6700000000000002 1.5,1.5 v4.5 h-1 z" id="svg_15" stroke="none" fill="#a8a4d6"/><path d="m5,22.819468677043915 h4 h1 v0.5 c0,0.28 -0.22000000000000003,0.5 -0.5,0.5 h-5 c-0.28,0 -0.5,-0.22000000000000003 -0.5,-0.5 v-0.5 z" id="svg_16" stroke="none" fill="#a8a4d6"/><path d="m1.75,0.019468677043914806 l10.99,1.6700000000000002 c0.7300000000000001,0.12000000000000001 1.26,0.7400000000000001 1.26,1.48 v5.74 l-0.4,-0.08000000000000002 c-0.15000000000000002,-0.030000000000000006 -0.30000000000000004,0.010000000000000002 -0.42000000000000004,0.1 c-0.11000000000000001,0.1 -0.18000000000000002,0.24000000000000002 -0.18000000000000002,0.39000000000000007 v-6.15 c0,-0.25 -0.18000000000000002,-0.46 -0.42000000000000004,-0.5 l-10.99,-1.6600000000000001 c-0.030000000000000006,-0.010000000000000002 -0.06000000000000001,-0.010000000000000002 -0.09000000000000002,-0.010000000000000002 c-0.12000000000000001,0 -0.23,0.04000000000000001 -0.32000000000000006,0.12000000000000001 c-0.12000000000000001,0.1 -0.18000000000000002,0.23 -0.18000000000000002,0.38000000000000006 v20.82 c0,0.28 0.23,0.5 0.5,0.5 h2.5 v0.5 c0,0.28 0.22000000000000003,0.5 0.5,0.5 h-3 c-0.8300000000000001,0 -1.5,-0.6700000000000002 -1.5,-1.5 v-20.82 c0,-0.44000000000000006 0.19000000000000003,-0.8600000000000001 0.53,-1.1400000000000001 c0.3400000000000001,-0.29000000000000004 0.78,-0.41000000000000003 1.22,-0.3400000000000001 z" id="svg_17" stroke="none" fill="#a8a4d6"/></g></g></svg>