<svg xmlns="http://www.w3.org/2000/svg" width="120" height="120"><rect id="backgroundrect" width="100%" height="100%" x="0" y="0" fill="none" stroke="none" class="" style=""/><title/><g class="currentLayer" style=""><title>Layer 1</title><g id="interface-solid-pin-location-1" fill="#929292" stroke-width="1" class="" stroke="none" opacity="1" filter="" fill-opacity="1"><circle cx="60" cy="23.38819753830839" fill="#929292" r="5.5828399658203125" id="svg_1" stroke-width="1" stroke="none" opacity="1" filter="" fill-opacity="1"/><path d="M75.24014819549559,76.20711148453643 a3.6650972186279303,3.6650972186279303 0 0 0 -4.056305424499512,3.351155517883301 a3.7171665060424806,3.7171665060424806 0 0 0 3.351155517883301,4.056268205566406 C96.61922443634033,85.72618859665799 108.38461303710938,92.14507745682646 108.38461303710938,95.96511709397245 c0,5.186644422912598 -19.29641640106201,13.026626586914062 -48.384613037109375,13.026626586914062 S11.615386962890625,101.15176151688506 11.615386962890625,95.96511709397245 c0,-3.820039637145996 11.765388600769043,-10.238928497314454 33.84961474822998,-12.35058188598633 a3.7171665060424806,3.7171665060424806 0 0 0 3.351155517883301,-4.056268205566406 a3.6602959762573244,3.6602959762573244 0 0 0 -4.056305424499512,-3.351155517883301 C25.13631820037842,78.08257352372098 4.171600341796875,84.25786446671414 4.171600341796875,95.96511709397245 C4.171600341796875,109.40245460770537 32.256635073852536,116.43553030198026 60,116.43553030198026 s55.828399658203125,-7.033075694274903 55.828399658203125,-20.470413208007812 C115.82839965820312,84.25786446671414 94.86368179962159,78.08257352372098 75.24014819549559,76.20711148453643 z" id="svg_2" fill="#929292" stroke-width="1" stroke="none" opacity="1" filter="" fill-opacity="1"/><path d="M56.278106689453125,56.587188116921666 V97.82606374924589 a3.721893310546875,3.721893310546875 0 0 0 7.44378662109375,0 V56.587188116921666 a26.053253173828125,26.053253173828125 0 1 0 -7.44378662109375,0 zM60,17.805357572488077 A5.5828399658203125,5.5828399658203125 0 1 1 54.41716003417969,23.38819753830839 A5.58894387084961,5.58894387084961 0 0 1 60,17.805357572488077 z" id="svg_3" fill="#929292" stroke-width="1" stroke="none" opacity="1" filter="" fill-opacity="1"/></g></g></svg>